<svg width="71" height="71" viewBox="0 0 71 71" fill="none" xmlns="http://www.w3.org/2000/svg">
<path d="M24.85 0V7.1H46.15V0H53.25V7.1H67.45C68.3915 7.1 69.2945 7.47402 69.9602 8.13977C70.626 8.80552 71 9.70848 71 10.65V67.45C71 68.3915 70.626 69.2945 69.9602 69.9602C69.2945 70.626 68.3915 71 67.45 71H3.55C2.60848 71 1.70552 70.626 1.03977 69.9602C0.374017 69.2945 0 68.3915 0 67.45V10.65C0 9.70848 0.374017 8.80552 1.03977 8.13977C1.70552 7.47402 2.60848 7.1 3.55 7.1H17.75V0H24.85ZM63.9 24.85H7.1V63.9H63.9V24.85ZM46.2778 32.4328L51.2975 37.4525L33.725 55.025L21.1722 42.4722L26.199 37.4525L33.7285 44.9856L46.2813 32.4328H46.2778Z" fill="white" fill-opacity="0.25"/>
</svg>
