<svg width="59" height="44" viewBox="0 0 59 44" fill="none" xmlns="http://www.w3.org/2000/svg">
<path d="M49.5652 19.1094C50.081 17.6803 50.2627 16.1389 50.0947 14.6183C49.9267 13.0976 49.4141 11.6433 48.601 10.3807C47.7878 9.11815 46.6987 8.08519 45.4273 7.37091C44.156 6.65663 42.7406 6.28246 41.3033 6.28066C39.5529 6.27897 37.8417 6.83293 36.3881 7.87186C34.7665 4.87318 32.2611 2.52845 29.2608 1.20145C26.2605 -0.12555 22.9329 -0.360623 19.7944 0.5327C16.6558 1.42602 13.8818 3.3978 11.9026 6.1421C9.92349 8.88641 8.84987 12.2498 8.84836 15.7105C8.84836 15.9759 8.85754 16.2414 8.86672 16.5068C5.91132 17.6165 3.41941 19.8036 1.83153 22.6814C0.243646 25.5592 -0.337941 28.9425 0.189587 32.233C0.717115 35.5235 2.31978 38.5093 4.71425 40.6626C7.10872 42.816 10.1408 43.9981 13.2744 44H47.2047C50.1283 43.998 52.9472 42.8402 55.1152 40.7509C57.2833 38.6615 58.6463 35.7893 58.9402 32.6907C59.2341 29.592 58.4379 26.4875 56.7059 23.9784C54.9739 21.4693 52.4294 19.7343 49.5652 19.1094ZM36.2688 25.1403H30.2363V36.1418C30.2352 36.5583 30.0794 36.9574 29.803 37.2519C29.5265 37.5464 29.1519 37.7123 28.7609 37.7134H24.3375C23.9465 37.7123 23.5719 37.5464 23.2954 37.2519C23.019 36.9574 22.8632 36.5583 22.8622 36.1418V25.1403H16.8296C16.5375 25.1414 16.2516 25.0499 16.0084 24.8774C15.7652 24.7049 15.5757 24.4592 15.4639 24.1717C15.3521 23.8841 15.3232 23.5676 15.3807 23.2625C15.4383 22.9573 15.5797 22.6773 15.7871 22.4581L25.506 12.1048C25.7832 11.8123 26.1577 11.6482 26.5479 11.6482C26.9381 11.6482 27.3126 11.8123 27.5898 12.1048L37.3087 22.4581C37.5154 22.6776 37.6563 22.9576 37.7135 23.2625C37.7707 23.5674 37.7416 23.8835 37.6299 24.1708C37.5183 24.4581 37.329 24.7036 37.0863 24.8762C36.8435 25.0488 36.558 25.1407 36.2662 25.1403H36.2688Z" fill="#027C8A"/>
</svg>
