<svg width="51" height="49" viewBox="0 0 51 49" fill="none" xmlns="http://www.w3.org/2000/svg">
<path d="M30.5911 2.23495e-06C35.2573 -0.00213818 39.7833 1.53319 43.4141 4.34992C47.045 7.16665 49.5612 11.0945 50.5432 15.4784C51.5251 19.8623 50.9135 24.4372 48.8102 28.4402C46.7069 32.4431 43.2392 35.6321 38.9854 37.4753C37.6256 40.3642 35.5571 42.893 32.9571 44.8449C30.357 46.7968 27.3032 48.1136 24.0574 48.6822C20.8115 49.2508 17.4707 49.0543 14.3212 48.1096C11.1717 47.1649 8.30772 45.5002 5.97477 43.2581C3.64181 41.0161 1.90953 38.2638 0.926501 35.2371C-0.0565273 32.2104 -0.26097 28.9998 0.330705 25.8805C0.922381 22.7612 2.29252 19.8264 4.32361 17.3277C6.3547 14.8291 8.98613 12.8411 11.9922 11.5344C13.6092 8.09614 16.224 5.17911 19.5229 3.13321C22.8219 1.08732 26.6649 -0.000580924 30.5911 2.23495e-06ZM20.3916 14.7029C18.3824 14.7029 16.393 15.0832 14.5368 15.8221C12.6806 16.561 10.994 17.644 9.57329 19.0093C8.15262 20.3746 7.02567 21.9954 6.25681 23.7793C5.48795 25.5631 5.09222 27.475 5.09222 29.4058C5.09222 31.3366 5.48795 33.2486 6.25681 35.0324C7.02567 36.8162 8.15262 38.4371 9.57329 39.8024C10.994 41.1677 12.6806 42.2507 14.5368 42.9896C16.393 43.7284 18.3824 44.1087 20.3916 44.1087C24.4492 44.1087 28.3406 42.5597 31.2098 39.8024C34.079 37.045 35.6909 33.3053 35.6909 29.4058C35.6909 25.5064 34.079 21.7666 31.2098 19.0093C28.3406 16.252 24.4492 14.7029 20.3916 14.7029ZM30.5911 4.90097C28.4306 4.89854 26.2941 5.33701 24.323 6.18738C22.352 7.03775 20.5913 8.28063 19.1574 9.8338C22.0395 9.66566 24.9258 10.0874 27.6256 11.0712C30.3254 12.0549 32.7771 13.5783 34.8187 15.5404C36.8602 17.5026 38.4451 19.859 39.4684 22.4536C40.4918 25.0483 40.9303 27.8222 40.755 30.5919C43.0734 28.611 44.7104 25.9995 45.4489 23.1039C46.1874 20.2084 45.9924 17.1654 44.89 14.3788C43.7875 11.5921 41.8296 9.19334 39.2759 7.50065C36.7222 5.80796 33.6933 4.90132 30.5911 4.90097Z" fill="white" fill-opacity="0.28"/>
</svg>
