<svg xmlns="http://www.w3.org/2000/svg" width="293" height="76" viewBox="0 0 293 76" fill="none">
<path fill-rule="evenodd" clip-rule="evenodd" d="M182.476 18.245C177.664 18.245 173.948 24.5321 169.906 22.5295C165.348 20.2713 169.279 7.20488 169.906 2.14797C170.051 0.97471 168.943 0 167.763 0H154.355C153.174 0 152.212 0.96521 152.212 2.14797V72.3814C152.212 73.5641 153.175 74.5293 154.355 74.5293H166.785C167.964 74.5293 169.073 73.5556 168.927 72.3814C168.868 71.9054 168.492 70.6618 168.927 70.4623C170.445 69.7688 171.566 72.5163 173.074 73.3152C176.06 74.8979 179.268 75.8043 182.656 75.8043C189.344 75.8043 194.903 73.0416 199.305 68.0294C204.492 62.1212 206.022 54.1563 206.022 46.5021C206.022 39.0749 204.509 31.3665 199.402 25.6912C194.898 20.6865 189.187 18.245 182.476 18.245ZM185.291 57.8709C183.725 59.7757 181.836 60.9147 179.344 60.9147C175.991 60.9147 173.66 59.2532 171.854 56.4905C170.035 53.707 169.709 49.1716 169.709 45.9454C169.709 42.6318 170.18 38.4897 172.412 35.8601C174.116 33.8517 176.185 32.84 178.822 32.84C181.49 32.84 183.567 33.8565 185.252 35.9256C187.547 38.7415 187.934 43.7157 187.934 47.188C187.934 50.5577 187.526 55.1529 185.291 57.8709Z" fill="#ED753F" style="&#10;    fill: white;&#10;"/>
<path fill-rule="evenodd" clip-rule="evenodd" d="M241.879 35.3833C242.919 32.4487 244.998 26.5795 246.038 23.645C246.385 22.6674 246.001 21.6062 245.11 21.078C242.052 19.2635 238.722 18.2441 235.162 18.2441C232.679 18.2441 230.325 18.8398 228.211 20.1518C227.336 20.6952 226.766 22.6769 225.708 22.2513C225.527 22.1791 225.684 21.6642 225.708 21.4713C225.855 20.2981 224.745 19.3234 223.565 19.3234H211.135C209.955 19.3234 208.992 20.2886 208.992 21.4713V72.3805C208.992 73.5633 209.955 74.5285 211.135 74.5285H224.544C225.724 74.5285 226.687 73.5633 226.687 72.3805V56.6864C226.687 53.1599 226.731 49.5974 226.964 46.0766C227.084 44.2469 227.245 41.9792 227.735 40.2084C228.131 38.7748 228.873 36.6563 230.084 35.693C231.089 34.8931 232.281 34.6052 233.548 34.6052C235.363 34.6052 237.205 35.5001 238.696 36.4673C239.265 36.8368 239.908 36.9166 240.549 36.6981C241.191 36.4796 241.652 36.0236 241.879 35.3833Z" fill="#ED753F" style="&#10;    fill: white;&#10;"/>
<path fill-rule="evenodd" clip-rule="evenodd" d="M48.1313 21.2515C48.1313 20.0687 47.1683 19.1035 45.9887 19.1035H4.00179C2.82216 19.1035 1.85917 20.0687 1.85917 21.2515V32.4341C1.85917 33.0278 2.07104 33.538 2.49098 33.957C2.91091 34.3759 3.42152 34.5849 4.0142 34.5821L21.9245 34.4842C22.2594 34.4823 22.5954 34.4795 22.9304 34.4747C21.7784 35.7525 20.6475 37.0492 19.5318 38.3298L0.528735 60.1554C0.174653 60.563 0 61.0275 0 61.5681V72.1616C0 73.3444 0.96299 74.3096 2.14263 74.3096H40.3319L36.8856 63.4139L29.2619 64.8789C28.9364 68.1374 23.3732 69.6888 21.6648 68.5222C17.6869 68.5336 17.9904 64.402 18.1765 62.5C23.776 53.2384 32.8743 43.4542 31.0428 42.5622L28.904 42.6125C28.4611 38.4211 30.474 35.647 33.4927 34.5317C32.3293 32.6079 33.2379 30.2652 32.1003 28.0764C34.722 29.3541 36.4304 31.39 37.443 34.0016C38.0414 34.0396 38.6522 34.127 39.2678 34.2638C39.0683 31.828 37.1328 29.7446 37.6883 27.4152C42.8611 29.9356 43.7544 32.0873 44.0092 36.331L48.1322 30.7678V21.2515H48.1313Z" fill="#ED753F" style="&#10;    fill: white;&#10;"/>
<path fill-rule="evenodd" clip-rule="evenodd" d="M72.9013 18.0254C65.708 18.0254 59.533 20.5781 54.6532 25.8962C49.2914 31.7397 47.498 39.4234 47.498 47.1812C47.498 47.7721 47.5095 48.3621 47.5324 48.9502L53.5842 36.9468L56.2088 39.2486L48.0573 54.0574C48.358 55.8026 48.7894 57.5164 49.3734 59.178L57.4457 44.468L59.6046 51.0497L51.2889 63.4445C51.4216 63.6829 52.6232 64.8249 52.7644 65.0595L60.8024 55.0312L63.9423 60.2078L56.2184 69.6424C56.3921 69.7953 56.5677 69.9454 56.7462 70.0917L65.7242 62.5933L69.3328 65.2239L63.0786 73.7312C63.4508 73.8718 63.8278 74.0039 64.2077 74.1274L71.797 66.8303L76.2226 68.1831L70.0095 75.3538C70.4695 75.4061 70.9324 75.4479 71.3991 75.4821L79.8321 68.1831L86.0653 67.8544L80.7856 74.9529C83.8444 74.3212 86.7696 73.1745 89.4076 71.3448C93.7635 68.3228 96.619 64.0154 98.3513 59.0383C98.567 58.4199 98.5049 57.8014 98.1718 57.2371C97.8388 56.6728 97.3272 56.3213 96.683 56.213L83.2746 53.9567C82.1952 53.7753 81.1645 54.426 80.861 55.4796C80.4076 57.0538 79.6489 58.8863 78.3356 59.9399C77.1932 60.8557 75.8361 61.1863 74.3892 61.1863C71.9412 61.1863 69.9283 60.3351 68.2591 58.5358C66.7893 56.9512 66.0678 54.9248 65.7643 52.8272H97.0142C98.1804 52.8272 99.1348 51.8885 99.1568 50.72C99.3152 42.3495 98.0888 32.8095 92.3796 26.2639C87.3022 20.446 80.5288 18.0254 72.9013 18.0254ZM65.9408 40.2918C66.1728 38.4022 66.7922 36.5791 68.0892 35.1237C69.6096 33.4175 71.4535 32.6204 73.7335 32.6204C75.9095 32.6204 77.6494 33.4137 79.1373 35.0011C80.4706 36.4224 81.1072 38.3509 81.383 40.2927H65.9408V40.2918Z" fill="#ED753F" style="&#10;    fill: white;&#10;"/>
<path fill-rule="evenodd" clip-rule="evenodd" d="M292.776 71.441C291.81 69.4488 290.987 67.3189 290.553 65.1414C290.307 63.9112 290.193 62.6068 290.113 61.3556C289.992 59.467 289.949 57.5642 289.958 55.6717C289.978 51.7548 290.076 43.9201 290.154 40.0041C290.154 39.9946 290.154 39.987 290.154 39.9776C290.154 36.1585 289.959 30.3235 288.098 26.9016C286.525 24.0088 283.88 21.9995 280.969 20.585C276.863 18.5899 271.136 18.2441 266.642 18.2441C261.245 18.2441 255.003 19.0013 250.49 22.2228C246.342 25.183 243.923 29.5949 242.588 34.4352C242.422 35.0394 242.508 35.6227 242.841 36.1528C243.174 36.6829 243.663 37.0116 244.28 37.1218C247.314 37.6614 253.382 38.7397 256.416 39.2793C257.461 39.4655 258.467 38.8736 258.814 37.8685C259.287 36.5043 260.075 34.7458 261.292 33.8813C262.49 33.0301 264.222 32.8382 265.648 32.8382C267.096 32.8382 270.314 32.9551 271.481 33.9763C272.461 34.8332 273.372 36.8245 272.655 37.8381C271.96 38.8195 270.326 38.5402 269.2 38.8252C266.614 39.4797 263.985 40.0174 261.365 40.5152C257.688 41.2145 253.553 42.1949 250.167 43.8289C247.379 45.1751 245.124 47.1634 243.51 49.8102C241.876 52.4911 241.141 55.4789 241.141 58.6139C241.141 63.4343 242.807 67.6343 246.315 70.9498C250.095 74.5209 255.007 75.8015 260.101 75.8015C263.284 75.8015 266.363 75.1888 269.285 73.9262C271.231 73.0854 272.684 70.072 274.688 70.6981C275.516 70.9574 275.23 72.3539 275.541 73.1576C275.868 73.9994 276.637 74.5266 277.539 74.5266H290.849C291.609 74.5266 292.262 74.1637 292.666 73.5177C293.069 72.8736 293.11 72.1269 292.776 71.441ZM272.528 54.6172C272.475 55.2651 272.403 56.0631 272.221 56.6892C271.813 58.0857 270.967 59.1687 269.808 60.0266C268.137 61.2635 266.242 61.9941 264.148 61.9941C262.66 61.9941 261.368 61.596 260.295 60.5453C259.333 59.6038 258.837 58.5465 258.837 57.1936C258.837 55.8769 259.477 54.9478 260.533 54.2239C261.903 53.2872 265.484 52.5566 267.077 52.2137C268.897 51.8232 270.802 51.4138 272.658 50.9245C272.653 52.1529 272.626 53.3936 272.528 54.6172Z" fill="#ED753F" style="&#10;    fill: white;&#10;"/>
<path d="M144.256 26.2864C139.182 20.4685 132.408 18.0488 124.782 18.0488C117.588 18.0488 111.413 20.6015 106.533 25.9197C102.31 30.5225 100.301 36.2682 99.6379 42.2912C99.6141 42.409 99.5883 42.5278 99.5568 42.6522C99.5205 43.0959 99.5167 43.2355 99.4891 43.6345C99.491 43.6117 99.4919 43.588 99.4938 43.5652C99.4747 43.9499 99.3984 44.3271 99.3717 44.7109C99.3249 45.3132 99.3545 45.2743 99.2609 45.9155C99.2008 46.8779 99.1197 47.8488 99.2018 48.8121C99.197 48.7456 99.1932 48.6782 99.1884 48.6117C99.2333 49.2235 99.2027 49.8372 99.2457 50.448C99.2924 50.8793 99.2772 51.1491 99.3927 52.2188C99.4022 52.3157 99.3946 52.2274 99.448 52.8924C99.6408 53.9146 99.5454 53.3798 99.6914 54.098C99.8489 54.8219 100.026 55.5676 100.107 55.9704C100.201 56.624 100.3 57.2834 100.551 57.8971C100.57 57.956 100.62 58.107 100.637 58.1887C100.64 58.2011 100.643 58.2106 100.645 58.222C100.685 58.696 101.06 60.0146 101.185 60.3481C101.209 60.4469 101.243 60.54 101.286 60.6293C101.354 60.8573 101.489 61.0625 101.612 61.2677C101.936 61.8577 102.298 62.4286 102.604 63.0281C102.787 63.4233 102.908 63.8489 103.15 64.2156C103.468 64.701 103.574 64.8435 103.781 65.1751C104.115 65.7518 104.459 66.3322 104.93 66.8082C105.557 67.4361 106.05 68.1847 106.698 68.7908C107.456 69.4986 107.911 69.7703 108.819 70.5237C109.192 70.7992 109.613 71.0015 109.968 71.3027C110.438 71.6409 110.95 71.9126 111.407 72.2688C111.844 72.5861 112.332 72.8113 112.81 73.0583C113.154 73.2226 113.437 73.4877 113.775 73.6634C114.201 73.8382 114.626 74.0225 115.057 74.184C115.388 74.2838 115.72 74.3864 116.053 74.4795C116.092 74.5317 116.138 74.5802 116.191 74.622C116.232 74.6325 116.273 74.641 116.314 74.6505C116.314 74.6524 116.314 74.6534 116.314 74.6553C116.477 74.6904 116.643 74.7161 116.809 74.7417C117.053 74.7816 117.297 74.8206 117.537 74.8852C118.216 75.0562 119.343 75.3744 120.312 75.5435C121.375 75.8057 122.481 75.7867 123.564 75.9112C124.543 76.0575 125.537 76.0128 126.513 75.8589C127.016 75.7848 127.529 75.763 128.023 75.6319C128.221 75.6347 128.42 75.6319 128.617 75.6186C128.898 75.5891 129.173 75.5207 129.453 75.4979C129.718 75.4856 129.981 75.4609 130.244 75.4248C130.269 75.4248 130.296 75.4257 130.322 75.4257C130.813 75.4048 131.311 75.4001 131.796 75.3174C132.07 75.2547 132.328 75.1398 132.593 75.0505C132.741 74.9897 132.896 74.9403 133.051 74.8909C135.971 74.2439 138.762 73.12 141.289 71.3663C145.645 68.3443 148.5 64.037 150.233 59.0599C150.448 58.4414 150.386 57.823 150.053 57.2587C149.72 56.6943 149.208 56.3428 148.564 56.2345L135.156 53.9783C134.077 53.7968 133.046 54.4476 132.742 55.5011C132.289 57.0753 131.53 58.9079 130.217 59.9614C129.074 60.8772 127.717 61.2078 126.27 61.2078C123.822 61.2078 121.81 60.3566 120.14 58.5573C118.671 56.9736 117.949 54.9463 117.646 52.8487H148.895C150.062 52.8487 151.016 51.9101 151.038 50.7416C151.192 42.372 149.965 32.831 144.256 26.2864ZM135.483 69.2924L135.608 69.2858L135.546 69.3684C135.449 69.3675 135.352 69.3684 135.257 69.3703C135.332 69.3456 135.408 69.3209 135.483 69.2924ZM132.411 73.4516C132.415 73.4411 132.419 73.4307 132.422 73.4193C132.476 73.3965 132.53 73.3746 132.584 73.3518L132.524 73.4335C132.509 73.4383 132.495 73.443 132.481 73.4478C132.458 73.4525 132.435 73.4573 132.411 73.463C132.411 73.4592 132.411 73.4554 132.411 73.4516ZM121.242 69.5965C121.145 69.5927 121.049 69.586 120.953 69.5803C120.93 69.548 120.905 69.5185 120.879 69.4929C121 69.529 121.121 69.5642 121.242 69.5965ZM116.583 41.7383C116.815 39.8487 117.435 38.0257 118.732 36.5703C120.252 34.864 122.096 34.067 124.376 34.067C126.552 34.067 128.292 34.8602 129.78 36.4477C131.113 37.8689 131.75 39.7974 132.025 41.7393H116.583V41.7383Z" fill="#ED753F" style="&#10;    fill: white;&#10;"/>
</svg>