<svg width="23" height="14" viewBox="0 0 23 14" fill="none" xmlns="http://www.w3.org/2000/svg">
<path fill-rule="evenodd" clip-rule="evenodd" d="M11.179 11.8288C9.99493 12.8268 8.45902 13.4293 6.78069 13.4293C3.03582 13.4293 0 10.4296 0 6.7293C0 3.02899 3.03582 0.0292969 6.78069 0.0292969C8.45902 0.0292969 9.99493 0.631795 11.179 1.62984C12.363 0.631795 13.8989 0.0292969 15.5773 0.0292969C19.3221 0.0292969 22.358 3.02899 22.358 6.7293C22.358 10.4296 19.3221 13.4293 15.5773 13.4293C13.8989 13.4293 12.363 12.8268 11.179 11.8288Z" fill="#ED0006"/>
<path fill-rule="evenodd" clip-rule="evenodd" d="M11.1787 11.8288C12.6366 10.5999 13.5611 8.77125 13.5611 6.7293C13.5611 4.68734 12.6366 2.85874 11.1787 1.62984C12.3628 0.631794 13.8987 0.0292969 15.577 0.0292969C19.3219 0.0292969 22.3577 3.02899 22.3577 6.7293C22.3577 10.4296 19.3219 13.4293 15.577 13.4293C13.8987 13.4293 12.3628 12.8268 11.1787 11.8288Z" fill="#F9A000"/>
<path fill-rule="evenodd" clip-rule="evenodd" d="M11.1793 11.8278C12.6372 10.5989 13.5616 8.77028 13.5616 6.72834C13.5616 4.6864 12.6372 2.85781 11.1793 1.62891C9.72133 2.85781 8.79688 4.6864 8.79688 6.72834C8.79688 8.77028 9.72133 10.5989 11.1793 11.8278Z" fill="#FF5E00"/>
</svg>
