<svg width="15" height="17" viewBox="0 0 15 17" fill="none" xmlns="http://www.w3.org/2000/svg">
<path d="M4.22236 17C3.07091 14.6425 3.68415 13.2918 4.56902 12.0189C5.15255 11.1789 5.56648 10.2364 5.78824 9.24257C6.03045 9.60776 6.1957 10.0171 6.2742 10.4463C6.3527 10.8754 6.34285 11.3158 6.24524 11.7411C6.78773 11.0862 7.19092 10.3306 7.43086 9.51931C7.6708 8.70802 7.7426 7.85757 7.64199 7.01844C10.6842 9.11252 11.9846 13.6401 10.2322 16.9967C19.5513 11.8084 12.5502 4.04652 11.3316 3.17031C11.7376 4.04486 11.8149 5.52504 10.9955 6.24364C9.60439 1.06247 6.16907 0 6.16907 0C6.5751 2.6738 4.69615 5.59723 2.88441 7.78168C2.89876 6.79759 2.6574 5.82621 2.18323 4.95964C2.05554 6.89611 0.551265 8.47493 0.144112 10.4152C-0.408092 13.045 0.559105 14.9671 4.22236 17Z" fill="url(#paint0_linear_598_2268)"/>
<defs>
<linearGradient id="paint0_linear_598_2268" x1="7.5" y1="0" x2="7.5" y2="17" gradientUnits="userSpaceOnUse">
<stop stop-color="#FF7F45"/>
<stop offset="0.369792" stop-color="#ED753F"/>
<stop offset="0.703125" stop-color="#FD2301"/>
<stop offset="1" stop-color="#FF0202"/>
</linearGradient>
</defs>
</svg>
