<svg width="22" height="27" viewBox="0 0 22 27" fill="none" xmlns="http://www.w3.org/2000/svg">
<path d="M13.1515 23.418C12.9498 23.4173 12.754 23.4853 12.5968 23.6105C12.4396 23.7357 12.3304 23.9107 12.2874 24.1061C12.2355 24.3748 12.1187 24.6271 11.9468 24.8412C11.8089 24.9885 11.6377 25.1014 11.4473 25.1706C11.257 25.2398 11.0528 25.2634 10.8515 25.2395C10.6504 25.2617 10.4467 25.2374 10.2566 25.1683C10.0666 25.0991 9.89527 24.9872 9.75626 24.8412C9.58443 24.6271 9.46756 24.3748 9.41568 24.1061C9.37273 23.9107 9.26354 23.7357 9.1063 23.6105C8.94906 23.4853 8.75328 23.4173 8.55163 23.418C8.41873 23.4182 8.28759 23.4481 8.16788 23.5053C8.04817 23.5626 7.94296 23.6458 7.86002 23.7488C7.77708 23.8518 7.71852 23.9719 7.68868 24.1004C7.65883 24.2288 7.65846 24.3623 7.68759 24.4909C7.81309 25.2207 8.20491 25.8793 8.78839 26.341C9.37187 26.8028 10.1062 27.0355 10.8515 26.9948C11.5972 27.0368 12.3322 26.8045 12.9159 26.3426C13.4997 25.8806 13.8912 25.2213 14.0155 24.4909C14.0441 24.3624 14.0433 24.2291 14.0132 24.1009C13.9832 23.9726 13.9246 23.8527 13.8417 23.7499C13.7589 23.647 13.6539 23.5638 13.5345 23.5064C13.4151 23.449 13.2842 23.4188 13.1515 23.418Z" fill="#F87D2E"/>
<path d="M21.4714 19.9905C20.4235 18.621 18.3626 17.8178 18.3626 11.6843C18.3626 5.3887 15.5566 2.8551 12.9442 2.25049C12.6994 2.19003 12.5223 2.10846 12.5223 1.85222V1.66028C12.5237 1.22663 12.3535 0.809768 12.0482 0.4993C11.743 0.188831 11.3271 0.00955065 10.89 0H10.8494C10.4123 0.00955065 9.99642 0.188831 9.69118 0.4993C9.38595 0.809768 9.21572 1.22663 9.21709 1.66028V1.85222C9.21709 2.10174 9.04003 2.19003 8.79523 2.25049C6.17602 2.8647 3.37683 5.3887 3.37683 11.6843C3.37683 17.8178 1.31591 18.6143 0.268029 19.9905C0.118102 20.1903 0.0270975 20.4274 0.00517442 20.6755C-0.0167486 20.9236 0.0312726 21.1728 0.143877 21.3954C0.256482 21.618 0.429238 21.8051 0.642862 21.936C0.856486 22.0668 1.10257 22.1362 1.35364 22.1364H20.41C20.659 22.1318 20.9019 22.0593 21.112 21.9267C21.3222 21.7941 21.4914 21.6066 21.6011 21.3848C21.7108 21.1631 21.7567 20.9156 21.7338 20.6696C21.711 20.4236 21.6201 20.1886 21.4714 19.9905ZM18.8183 20.3821H2.95304C2.89537 20.3825 2.83882 20.3663 2.79026 20.3354C2.74169 20.3046 2.7032 20.2604 2.67943 20.2083C2.65567 20.1562 2.64766 20.0983 2.65638 20.0418C2.6651 19.9853 2.69018 19.9324 2.72856 19.8897C3.32586 19.2211 3.80863 18.4599 4.15766 17.6364C4.87661 15.7366 5.20716 13.714 5.13007 11.6862C5.00863 9.63816 5.50371 7.60048 6.5524 5.83209C7.15608 4.89816 8.09812 4.22966 9.18419 3.96451C9.67008 3.8648 10.1125 3.61722 10.4498 3.25626C10.4993 3.19815 10.5608 3.15122 10.6301 3.11861C10.6994 3.08601 10.7749 3.06848 10.8516 3.06721C10.9283 3.06593 11.0044 3.08095 11.0748 3.11123C11.1452 3.14152 11.2082 3.18639 11.2596 3.24282C11.602 3.60698 12.0482 3.85878 12.5388 3.96451C13.6244 4.22826 14.5667 4.89497 15.1715 5.82729C16.2202 7.59569 16.7153 9.63336 16.5939 11.6814C16.5168 13.7092 16.8473 15.7318 17.5663 17.6316C17.9238 18.4688 18.4181 19.2418 19.0292 19.9195C19.0646 19.9598 19.0876 20.0094 19.0954 20.0623C19.1032 20.1152 19.0956 20.1692 19.0733 20.2179C19.0511 20.2666 19.0153 20.308 18.9701 20.3371C18.9249 20.3662 18.8722 20.3818 18.8183 20.3821Z" fill="#F87D2E"/>
</svg>
