<svg width="582" height="423" viewBox="0 0 582 423" fill="none" xmlns="http://www.w3.org/2000/svg">
<g clip-path="url(#clip0_496_1586)">
<path d="M79.042 421.524C79.0351 421.545 79.0351 421.573 79.0281 421.595H34.0035C33.1559 421.053 32.3222 420.491 31.5025 419.922C26.4402 416.452 21.7652 412.437 17.5595 407.946C12.7383 402.75 8.75518 396.819 5.75623 390.37C-0.18361 377.551 -2.01072 362.968 2.58832 349.791C2.58832 349.789 2.58905 349.788 2.59035 349.786C2.59165 349.785 2.59342 349.784 2.59526 349.784C2.70641 349.454 2.83147 349.117 2.95652 348.779C3.14409 349.11 3.32471 349.433 3.51924 349.756L3.52618 349.763C6.10756 354.157 9.03485 358.334 12.2796 362.252V362.259C12.5297 362.561 12.7798 362.863 13.0369 363.158C13.0369 363.16 13.0376 363.162 13.0389 363.163C13.0402 363.165 13.042 363.165 13.0438 363.165C20.9226 372.483 30.4414 380.242 41.1174 386.048C41.1521 386.069 41.1799 386.083 41.2146 386.104C41.2502 386.126 41.2874 386.144 41.3258 386.16C41.3327 386.167 41.3397 386.167 41.3466 386.174C43.7156 387.467 46.1471 388.648 48.6203 389.716V389.723C50.5655 390.574 52.5455 391.347 54.5393 392.064C58.791 393.575 63.3761 394.952 67.4472 396.941C71.4071 398.874 74.8946 401.383 77.1663 405.156C77.34 405.466 77.5136 405.768 77.6734 406.077L76.3465 415.368L78.9934 415.354L78.7433 419.922L78.6738 421.243L79.042 421.524Z" fill="#027C8A"/>
<path d="M67.9257 421.594H66.9739C66.8836 421.032 66.7933 420.477 66.6891 419.921C66.4193 418.402 66.0526 416.902 65.5915 415.431C65.383 414.77 65.1468 414.123 64.8759 413.484C63.3406 409.844 60.7006 406.646 56.7963 405.578C55.6597 405.273 54.4914 405.105 53.3158 405.079C50.9885 404.98 48.6264 405.282 46.313 405.409C45.7433 405.437 45.1667 405.458 44.611 405.451H44.5971C41.5884 405.501 38.6046 404.892 35.8506 403.666C32.4493 402.019 29.3524 399.794 26.6942 397.088C24.9549 395.403 23.3016 393.63 21.7408 391.775V391.768C21.5324 391.536 21.331 391.297 21.1295 391.051C17.4513 386.579 14.2364 381.738 11.5354 376.602C10.1584 374.006 8.92227 371.336 7.83258 368.604C7.81815 368.58 7.8065 368.554 7.79786 368.527C5.3599 362.503 3.61172 356.217 2.58747 349.791C2.58689 349.789 2.58689 349.788 2.58747 349.786C2.58904 349.785 2.59076 349.785 2.59233 349.786C2.53675 349.498 2.49507 349.203 2.45339 348.914C2.36307 348.317 3.30094 348.289 3.3843 348.886C3.42599 349.182 3.46767 349.463 3.5163 349.758L3.52326 349.765C4.50904 355.918 6.16322 361.942 8.45575 367.728V367.735C8.57385 368.03 8.69196 368.318 8.81006 368.606C12.0711 376.608 16.5353 384.052 22.0444 390.674L22.0514 390.688C22.107 390.758 22.1695 390.821 22.232 390.892C22.2346 390.894 22.2366 390.898 22.2378 390.901C22.239 390.905 22.2394 390.909 22.239 390.913C22.2459 390.906 22.2459 390.913 22.2459 390.913C23.5311 392.452 24.8789 393.928 26.2822 395.361C28.8771 398.135 31.8873 400.478 35.2024 402.305C37.9706 403.739 41.0333 404.495 44.1434 404.512C44.456 404.512 44.7687 404.519 45.0813 404.512C45.3314 404.512 45.5815 404.504 45.8316 404.49C48.1867 404.378 50.5765 404.076 52.9455 404.118C54.0228 404.139 55.0965 404.252 56.1551 404.455C57.8939 404.832 59.5343 405.577 60.9686 406.64C62.403 407.704 63.5988 409.062 64.4778 410.626C65.3615 412.137 66.0657 413.748 66.5759 415.426C66.7495 415.974 66.8954 416.529 67.0413 417.091V417.098C67.2636 417.998 67.4582 418.912 67.6249 419.832C67.6329 419.862 67.6376 419.893 67.6388 419.924C67.7437 420.477 67.834 421.039 67.9257 421.594Z" fill="white"/>
<path d="M22.0963 391.512C19.7151 393.306 16.7809 394.186 13.8177 393.993C10.8546 393.801 8.05561 392.55 5.92053 390.462C5.4898 390.041 6.1206 389.341 6.55202 389.766C8.53686 391.713 11.1444 392.878 13.9041 393.051C16.6637 393.224 19.3936 392.394 21.601 390.71C22.0811 390.344 22.5736 391.147 22.0963 391.51V391.512Z" fill="white"/>
<path d="M44.1053 404.8C45.0376 398.733 43.675 392.533 40.2892 387.437C39.9537 386.932 40.7449 386.432 41.0805 386.936C44.5937 392.246 45.9986 398.7 45.0147 405.012C44.9209 405.613 44.0115 405.397 44.1053 404.8Z" fill="white"/>
<path d="M8.2056 367.859C9.26988 367.359 10.1947 366.6 10.8972 365.649C11.5996 364.698 12.0576 363.585 12.2301 362.411C12.3169 361.809 13.2263 362.025 13.1402 362.622C12.9437 363.918 12.4364 365.146 11.6625 366.199C10.8887 367.251 9.87188 368.096 8.70093 368.659C8.59475 368.72 8.46955 368.739 8.35032 368.711C8.23108 368.684 8.12658 368.611 8.05763 368.509C7.99252 368.403 7.97153 368.275 7.99924 368.153C8.02695 368.031 8.10112 367.925 8.2056 367.858V367.859Z" fill="white"/>
<path d="M85.8342 390.679L85.452 394.243L79.3733 394.151L78.4562 400.575L78.2965 401.678V401.685L77.6712 406.077L76.3443 415.368L78.9912 415.354L78.7411 419.922L78.6716 421.243L79.0398 421.525L79.1232 421.595L79.151 421.616C79.0745 421.77 78.9912 421.925 78.9078 422.087C78.9564 421.918 78.9912 421.763 79.0259 421.595H61.4357C61.1091 421.04 60.7896 420.484 60.4769 419.922C57.7625 415.143 55.3696 410.184 53.3144 405.079C53.1894 404.763 53.0574 404.447 52.9462 404.124V404.117C51.1189 399.446 49.6714 394.632 48.6181 389.724V389.717C48.0473 387.028 47.6137 384.312 47.319 381.578C46.5659 374.514 46.9152 367.373 48.3541 360.418C48.3657 360.383 48.375 360.348 48.3819 360.312C51.1538 347.037 57.9134 334.766 68.619 326.993C69.0637 326.656 69.5222 326.34 69.9876 326.031C69.9946 326.024 69.9946 326.024 70.0015 326.024C70.0034 326.024 70.0051 326.023 70.0064 326.021C70.0077 326.02 70.0085 326.018 70.0085 326.017C70.3003 325.827 70.5851 325.637 70.8769 325.447C70.8352 325.827 70.7865 326.206 70.7518 326.586C70.1904 331.662 70.0417 336.777 70.3072 341.878V341.892C70.3141 342.286 70.335 342.679 70.3628 343.08V343.094C71.1201 355.351 74.1139 367.36 79.1926 378.514C79.2012 378.544 79.2129 378.572 79.2274 378.599C79.2413 378.634 79.2552 378.662 79.2691 378.697C81.1689 382.846 83.363 386.851 85.8342 390.679Z" fill="#027C8A"/>
<path d="M71.1673 325.794C71.0283 326.053 70.8831 326.321 70.7505 326.587C69.713 328.571 68.758 330.598 67.8854 332.668C66.326 336.323 65.0288 340.088 64.004 343.932C63.9214 344.231 63.8394 344.538 63.7644 344.846C61.5982 353.232 60.731 361.908 61.1939 370.563C61.1939 370.649 61.2002 370.726 61.2078 370.81C61.3185 372.831 61.51 374.844 61.7823 376.85C62.2027 380.645 63.2108 384.349 64.7696 387.826C64.9878 388.28 65.2184 388.725 65.4602 389.154C66.0624 390.202 66.7614 391.19 67.5478 392.105C68.1147 392.775 68.7256 393.405 69.3763 393.991C69.7688 394.351 70.1738 394.701 70.5969 395.034C70.8415 395.227 71.0923 395.418 71.343 395.61C71.5515 395.751 71.7522 395.903 71.96 396.045C74.1136 397.539 76.443 398.867 78.4535 400.578L78.2958 401.682C76.336 399.898 73.9712 398.548 71.796 397.072C70.4329 396.16 69.1568 395.121 67.9841 393.969C67.8306 393.81 67.6694 393.653 67.5214 393.486C66.7278 392.659 66.011 391.76 65.3803 390.8C65.0593 390.32 64.755 389.824 64.4709 389.304C62.7436 385.916 61.5977 382.256 61.0821 378.481C60.6955 376.072 60.4291 373.646 60.2838 371.21C60.2581 370.894 60.2408 370.584 60.229 370.264C59.6202 357.043 62.0309 343.858 67.2741 331.732C68.1077 329.797 69.0176 327.891 70.0036 326.016C70.1294 325.759 70.2627 325.507 70.4017 325.248C70.6879 324.714 71.4507 325.26 71.1673 325.794Z" fill="white"/>
<path d="M60.7312 371.224C57.7622 371.206 54.8961 370.121 52.6448 368.163C50.3935 366.205 48.9035 363.501 48.441 360.534C48.3493 359.933 49.2677 359.761 49.3594 360.363C49.785 363.126 51.1731 365.645 53.2732 367.464C55.3733 369.283 58.047 370.283 60.8118 370.283C61.4128 370.283 61.3287 371.225 60.7312 371.224Z" fill="white"/>
<path d="M70.395 395.238C74.7502 390.962 77.3521 385.182 77.6818 379.051C77.7138 378.444 78.644 378.526 78.6121 379.133C78.2573 385.512 75.5376 391.521 70.9959 395.962C70.5624 396.383 69.9642 395.659 70.395 395.238Z" fill="white"/>
<path d="M63.7166 343.878C64.8638 344.127 66.0543 344.084 67.1812 343.753C68.308 343.421 69.3359 342.812 70.1726 341.98C70.6005 341.552 71.198 342.278 70.7735 342.703C69.8451 343.619 68.7091 344.29 67.4649 344.659C66.2207 345.028 64.9061 345.084 63.636 344.82C63.5146 344.804 63.4034 344.743 63.3247 344.648C63.2461 344.553 63.2056 344.432 63.2115 344.308C63.2228 344.184 63.2823 344.069 63.377 343.988C63.4717 343.908 63.594 343.869 63.7173 343.879L63.7166 343.878Z" fill="white"/>
<path d="M207.466 422.163C207.466 422.273 207.445 422.382 207.404 422.484C207.362 422.586 207.301 422.678 207.224 422.756C207.148 422.833 207.056 422.895 206.956 422.937C206.855 422.979 206.748 423 206.639 423H11.9166C11.6973 423 11.487 422.912 11.332 422.755C11.1769 422.598 11.0898 422.385 11.0898 422.163C11.0898 421.942 11.1769 421.729 11.332 421.572C11.487 421.415 11.6973 421.327 11.9166 421.327H206.639C206.748 421.327 206.855 421.348 206.956 421.39C207.056 421.432 207.148 421.494 207.224 421.571C207.301 421.649 207.362 421.741 207.404 421.843C207.445 421.945 207.466 422.054 207.466 422.163Z" fill="#CCCCCC"/>
<path d="M544.454 77.9514H418.56C417.471 77.9514 416.427 77.5138 415.657 76.7349C414.887 75.956 414.454 74.8995 414.454 73.798C414.454 72.6964 414.887 71.64 415.657 70.861C416.427 70.0821 417.471 69.6445 418.56 69.6445H544.454C545.543 69.6445 546.587 70.0821 547.357 70.861C548.127 71.64 548.56 72.6964 548.56 73.798C548.56 74.8995 548.127 75.956 547.357 76.7349C546.587 77.5138 545.543 77.9514 544.454 77.9514Z" fill="#027C8A" fill-opacity="0.3"/>
<path d="M544.454 94.3642H418.56C417.471 94.3642 416.427 93.9266 415.657 93.1476C414.887 92.3686 414.454 91.3121 414.454 90.2104C414.454 89.1088 414.887 88.0522 415.657 87.2733C416.427 86.4943 417.471 86.0566 418.56 86.0566H544.454C545.543 86.0566 546.588 86.4943 547.358 87.2733C548.128 88.0522 548.56 89.1088 548.56 90.2104C548.56 91.3121 548.128 92.3686 547.358 93.1476C546.588 93.9266 545.543 94.3642 544.454 94.3642Z" fill="#027C8A" fill-opacity="0.3"/>
<path d="M473.132 110.776H418.56C417.471 110.776 416.427 110.339 415.657 109.56C414.887 108.781 414.454 107.724 414.454 106.623C414.454 105.521 414.887 104.464 415.657 103.685C416.427 102.906 417.471 102.469 418.56 102.469H473.132C474.221 102.469 475.266 102.906 476.036 103.685C476.806 104.464 477.239 105.521 477.239 106.623C477.239 107.724 476.806 108.781 476.036 109.56C475.266 110.339 474.221 110.776 473.132 110.776Z" fill="#027C8A" fill-opacity="0.3"/>
<path d="M544.454 171.29H418.56C417.471 171.29 416.427 170.853 415.657 170.074C414.887 169.295 414.454 168.238 414.454 167.137C414.454 166.035 414.887 164.979 415.657 164.2C416.427 163.421 417.471 162.983 418.56 162.983H544.454C545.543 162.983 546.587 163.421 547.357 164.2C548.127 164.979 548.56 166.035 548.56 167.137C548.56 168.238 548.127 169.295 547.357 170.074C546.587 170.853 545.543 171.29 544.454 171.29Z" fill="#027C8A" fill-opacity="0.3"/>
<path d="M544.454 187.702H418.56C417.471 187.702 416.427 187.264 415.657 186.486C414.887 185.707 414.454 184.65 414.454 183.548C414.454 182.447 414.887 181.39 415.657 180.611C416.427 179.832 417.471 179.395 418.56 179.395H544.454C545.543 179.395 546.588 179.832 547.358 180.611C548.128 181.39 548.56 182.447 548.56 183.548C548.56 184.65 548.128 185.707 547.358 186.486C546.588 187.264 545.543 187.702 544.454 187.702Z" fill="#027C8A" fill-opacity="0.3"/>
<path d="M473.132 204.115H418.56C417.471 204.115 416.427 203.678 415.657 202.899C414.887 202.12 414.454 201.063 414.454 199.961C414.454 198.86 414.887 197.803 415.657 197.024C416.427 196.245 417.471 195.808 418.56 195.808H473.132C474.221 195.808 475.266 196.245 476.036 197.024C476.806 197.803 477.239 198.86 477.239 199.961C477.239 201.063 476.806 202.12 476.036 202.899C475.266 203.678 474.221 204.115 473.132 204.115Z" fill="#027C8A" fill-opacity="0.3"/>
<path d="M544.454 269.761H418.56C417.471 269.761 416.427 269.323 415.657 268.544C414.887 267.766 414.454 266.709 414.454 265.608C414.454 264.506 414.887 263.45 415.657 262.671C416.427 261.892 417.471 261.454 418.56 261.454H544.454C545.543 261.454 546.587 261.892 547.357 262.671C548.127 263.45 548.56 264.506 548.56 265.608C548.56 266.709 548.127 267.766 547.357 268.544C546.587 269.323 545.543 269.761 544.454 269.761Z" fill="#027C8A" fill-opacity="0.3"/>
<path d="M544.454 286.174H418.56C417.471 286.174 416.427 285.736 415.657 284.957C414.887 284.178 414.454 283.122 414.454 282.02C414.454 280.918 414.887 279.862 415.657 279.083C416.427 278.304 417.471 277.866 418.56 277.866H544.454C545.543 277.866 546.588 278.304 547.358 279.083C548.128 279.862 548.56 280.918 548.56 282.02C548.56 283.122 548.128 284.178 547.358 284.957C546.588 285.736 545.543 286.174 544.454 286.174Z" fill="#027C8A" fill-opacity="0.3"/>
<path d="M473.132 302.586H418.56C417.471 302.586 416.427 302.148 415.657 301.369C414.887 300.59 414.454 299.534 414.454 298.432C414.454 297.33 414.887 296.274 415.657 295.495C416.427 294.716 417.471 294.278 418.56 294.278H473.132C474.221 294.278 475.266 294.716 476.036 295.495C476.806 296.274 477.239 297.33 477.239 298.432C477.239 299.534 476.806 300.59 476.036 301.369C475.266 302.148 474.221 302.586 473.132 302.586Z" fill="#027C8A" fill-opacity="0.3"/>
<path d="M368.335 216.448H292.541C290.51 216.446 288.563 215.629 287.126 214.176C285.69 212.723 284.882 210.753 284.88 208.698V158.4C284.882 156.345 285.69 154.375 287.126 152.922C288.563 151.469 290.51 150.652 292.541 150.649H368.335C370.366 150.652 372.314 151.469 373.75 152.922C375.186 154.375 375.994 156.345 375.996 158.4V208.698C375.994 210.753 375.186 212.722 373.75 214.175C372.313 215.628 370.366 216.446 368.335 216.448Z" fill="#027C8A"/>
<path d="M363.008 156.936H297.873C296.023 156.937 294.25 157.681 292.941 159.004C291.633 160.327 290.897 162.121 290.895 163.992V203.108C290.897 204.979 291.634 206.772 292.942 208.095C294.25 209.418 296.023 210.163 297.873 210.165H339.408C347.515 210.157 355.287 206.895 361.019 201.097C366.751 195.298 369.975 187.435 369.983 179.235V163.992C369.981 162.122 369.246 160.328 367.938 159.006C366.631 157.683 364.858 156.939 363.009 156.937L363.008 156.936Z" fill="white"/>
<path d="M344.601 170.159L344.406 170.514C346.139 166.194 344.563 160.871 341.472 157.614C338.381 154.356 334.085 152.867 329.853 152.277C326.712 151.838 323.452 151.851 320.465 153.015C316.14 154.701 312.836 158.602 310.077 162.661C308.815 164.518 307.576 166.634 307.7 168.955C307.817 171.108 309.08 172.935 310.115 174.762C311.149 176.59 312.013 178.856 311.271 180.85C310.828 182.038 309.893 182.894 309.134 183.866C308.375 184.839 307.751 186.152 308.117 187.372C308.28 187.838 308.56 188.254 308.929 188.579C309.298 188.903 309.744 189.125 310.224 189.223C311.153 189.379 312.102 189.355 313.022 189.153L337.14 185.467C338.778 185.216 340.333 184.568 341.67 183.578C343.007 182.588 344.089 181.286 344.821 179.782C345.554 178.279 345.917 176.618 345.878 174.942C345.84 173.266 345.401 171.625 344.601 170.157V170.159Z" fill="#2F2E41"/>
<path d="M326.662 185.299C333.174 185.299 338.453 179.959 338.453 173.371C338.453 166.783 333.174 161.442 326.662 161.442C320.149 161.442 314.87 166.783 314.87 173.371C314.87 179.959 320.149 185.299 326.662 185.299Z" fill="#FFB9B9"/>
<path d="M357.432 204.204C352.206 208.084 345.89 210.173 339.408 210.165H303.227C303.158 210.105 303.088 210.045 303.012 209.982L306.386 200.456C307.149 198.765 308.352 197.315 309.868 196.263C311.383 195.21 313.153 194.595 314.987 194.483L317.134 194.349L322.253 189.883C322.253 189.883 336.046 189.385 335.841 189.146L344.196 194.23L344.189 194.195L347.474 194.399C349.308 194.511 351.078 195.126 352.594 196.178C354.109 197.231 355.313 198.681 356.075 200.373L357.432 204.204Z" fill="#ED753F"/>
<path d="M337.846 162.3C337.542 160.671 335.901 159.926 334.492 159.564C330.411 158.511 326.165 158.275 321.994 158.87C318.954 159.309 315.841 160.276 313.635 162.677C311.856 164.698 310.848 167.295 310.792 170.001C310.702 171.619 311.059 173.23 311.824 174.654C312.166 175.317 312.672 175.879 313.293 176.284C313.914 176.689 314.629 176.924 315.367 176.965L315.506 177.463C321.426 176.629 326.925 172.902 330.389 167.378C329.739 169.726 328.445 171.84 326.657 173.476C330.654 171.858 334.128 169.15 336.693 165.652C337.398 164.712 338.078 163.539 337.846 162.3Z" fill="#2F2E41"/>
<path d="M368.334 123.109H292.54C290.51 123.106 288.563 122.288 287.128 120.836C285.692 119.383 284.884 117.414 284.882 115.359V65.0613C284.884 63.0062 285.691 61.0358 287.128 59.5825C288.564 58.1293 290.512 57.3118 292.543 57.3096H368.337C370.368 57.3118 372.316 58.1291 373.752 59.582C375.188 61.035 375.996 63.005 375.998 65.0598V115.359C375.996 117.414 375.188 119.384 373.752 120.837C372.315 122.29 370.368 123.107 368.337 123.11L368.334 123.109Z" fill="#027C8A"/>
<path d="M363.009 63.5957H297.873C296.024 63.5979 294.251 64.3419 292.943 65.6644C291.635 66.9869 290.899 68.7801 290.896 70.6509V109.766C290.898 111.638 291.634 113.432 292.942 114.755C294.25 116.078 296.023 116.822 297.873 116.825H339.408C347.515 116.818 355.288 113.558 361.021 107.758C366.754 101.959 369.977 94.0961 369.984 85.895V70.6509C369.982 68.7804 369.246 66.9871 367.939 65.6644C366.631 64.3417 364.858 63.5977 363.009 63.5957Z" fill="white"/>
<path d="M314.785 71.1838C317.852 71.1838 320.339 68.6682 320.339 65.565C320.339 62.4619 317.852 59.9463 314.785 59.9463C311.717 59.9463 309.23 62.4619 309.23 65.565C309.23 68.6682 311.717 71.1838 314.785 71.1838Z" fill="#2F2E41"/>
<path d="M323.672 92.5371C331.444 92.5371 337.744 86.1639 337.744 78.3022C337.744 70.4405 331.444 64.0674 323.672 64.0674C315.901 64.0674 309.601 70.4405 309.601 78.3022C309.601 86.1639 315.901 92.5371 323.672 92.5371Z" fill="#2F2E41"/>
<path d="M324.837 92.534C331.153 92.534 336.272 87.3549 336.272 80.9662C336.272 74.5775 331.153 69.3984 324.837 69.3984C318.522 69.3984 313.402 74.5775 313.402 80.9662C313.402 87.3549 318.522 92.534 324.837 92.534Z" fill="#9E616A"/>
<path d="M332.602 69.174C330.598 67.9383 328.303 67.2698 325.957 67.2385C323.61 67.2071 321.298 67.8141 319.263 68.9959C317.228 70.1777 315.544 71.891 314.387 73.9565C313.23 76.0221 312.644 78.3641 312.688 80.7376C318.514 82.2177 324.637 83.3498 330.849 81.089L332.316 77.4563L333.181 81.0918C335.074 81.874 336.971 82.536 338.868 81.0841C338.945 78.7173 338.407 76.3714 337.307 74.2809C336.208 72.1904 334.585 70.4284 332.601 69.1712L332.602 69.174Z" fill="#2F2E41"/>
<path d="M309.613 50.311C307.663 49.4692 305.519 49.1961 303.423 49.5227C301.328 49.8494 299.364 50.7627 297.755 52.1594C296.182 53.5963 294.984 55.4046 294.269 57.4231C293.554 59.4416 293.343 61.6078 293.656 63.7285C294.286 68.0422 296.878 71.7571 299.268 75.3863C301.658 79.0155 303.992 82.9925 303.992 87.3533C303.99 90.4941 302.757 93.506 300.563 95.7284C298.37 97.9508 295.394 99.2023 292.289 99.2085C295.933 100.795 299.736 102.413 303.699 102.226C307.662 102.038 311.816 99.4601 312.462 95.5006C312.928 92.6473 311.545 89.8657 310.391 87.2197C308.511 82.9088 307.152 78.3841 306.344 73.7439C305.958 71.5294 305.708 69.2011 306.421 67.0717C306.989 65.4935 308.044 64.142 309.43 63.2162C310.815 62.2905 312.458 61.8396 314.116 61.9301L315.425 60.7354C315.649 58.6022 315.209 56.4515 314.167 54.583C313.125 52.7145 311.534 51.2212 309.613 50.311Z" fill="#2F2E41"/>
<path d="M355.084 112.44C350.35 115.318 344.93 116.834 339.408 116.826H300.211L300.148 116.773L303.523 107.244C304.285 105.552 305.489 104.102 307.004 103.05C308.519 101.997 310.289 101.382 312.124 101.27L314.271 101.137L319.389 96.6707C319.389 96.6707 333.182 96.1689 332.978 95.9307L341.333 101.015L341.326 100.983L344.61 101.187C346.445 101.297 348.216 101.912 349.731 102.965C351.247 104.017 352.45 105.468 353.212 107.16L355.084 112.44Z" fill="#ED753F"/>
<path d="M368.335 314.919H292.541C290.51 314.917 288.563 314.1 287.126 312.647C285.69 311.194 284.882 309.224 284.88 307.169V256.871C284.882 254.817 285.69 252.847 287.126 251.394C288.563 249.941 290.51 249.123 292.541 249.121H368.335C370.366 249.123 372.314 249.941 373.75 251.394C375.186 252.847 375.994 254.817 375.996 256.871V307.169C375.994 309.224 375.186 311.194 373.75 312.647C372.314 314.1 370.366 314.917 368.335 314.92V314.919Z" fill="#027C8A"/>
<path d="M363.009 255.406H297.873C296.024 255.408 294.251 256.152 292.943 257.475C291.634 258.797 290.898 260.591 290.896 262.461V301.577C290.898 303.448 291.634 305.242 292.942 306.565C294.25 307.889 296.023 308.633 297.873 308.636H339.408C347.515 308.627 355.287 305.366 361.019 299.567C366.752 293.769 369.975 285.906 369.984 277.706V262.461C369.982 260.591 369.246 258.797 367.938 257.475C366.631 256.152 364.858 255.408 363.009 255.406Z" fill="white"/>
<path d="M330.383 280.29C339.048 280.29 346.072 273.184 346.072 264.419C346.072 255.654 339.048 248.548 330.383 248.548C321.718 248.548 314.694 255.654 314.694 264.419C314.694 273.184 321.718 280.29 330.383 280.29Z" fill="#2F2E41"/>
<path d="M330.389 282.374C338.13 282.374 344.405 276.027 344.405 268.196C344.405 260.366 338.13 254.019 330.389 254.019C322.649 254.019 316.374 260.366 316.374 268.196C316.374 276.027 322.649 282.374 330.389 282.374Z" fill="#FFB8B8"/>
<path d="M358.424 301.91C353.023 306.271 346.317 308.643 339.408 308.636H304.455L307.77 299.278C308.533 297.586 309.737 296.136 311.252 295.084C312.767 294.032 314.537 293.416 316.372 293.304L318.518 293.17L323.637 288.704C323.637 288.704 337.43 288.206 337.226 287.968L345.58 293.052L345.573 293.017L348.858 293.22C350.693 293.332 352.463 293.947 353.978 295C355.494 296.052 356.697 297.502 357.459 299.194L358.424 301.91Z" fill="#ED753F"/>
<path d="M345.176 263.224C345.274 262.166 345.319 261.103 345.311 260.04C345.368 257.937 344.987 255.846 344.193 253.902C343.216 251.749 341.475 250.048 339.314 249.134C337.173 248.261 334.781 248.263 332.641 249.14C330.759 247.829 328.577 247.026 326.302 246.805C325.163 246.713 324.018 246.9 322.965 247.352C321.913 247.804 320.984 248.506 320.258 249.4C319.947 249.893 319.594 250.357 319.202 250.787C318.082 251.836 316.381 251.685 314.895 251.47L316.898 253.207L314.473 253.848L317.302 255.584C314.565 257.246 313.32 260.873 313.649 264.169C313.961 267.288 315.449 270.142 317.229 272.677C317.939 271.161 317.784 269.348 317.774 267.641C317.767 267.087 317.801 266.534 317.874 265.985C323.889 267.443 330.17 268.379 336.547 266.063L337.826 262.896C338.005 262.915 338.185 262.933 338.364 262.952L339.105 266.066C340.785 266.76 342.468 267.367 344.153 266.73C344.235 267.21 344.284 267.702 344.323 268.173C344.467 267.611 344.593 267.04 344.705 266.47C344.928 266.349 345.141 266.211 345.343 266.058C345.384 265.11 345.328 264.161 345.177 263.225L345.176 263.224Z" fill="#2F2E41"/>
<path d="M580.168 14.6001H253.277C252.791 14.5996 252.326 14.4042 251.982 14.0569C251.639 13.7096 251.446 13.2388 251.445 12.7476V1.85449C251.446 1.36334 251.639 0.892464 251.982 0.545168C252.326 0.197871 252.791 0.00251115 253.277 0.00195312H580.171C580.657 0.00251115 581.122 0.197871 581.466 0.545168C581.809 0.892464 582.002 1.36334 582.003 1.85449V12.7476C582.002 13.2388 581.809 13.7096 581.466 14.0569C581.122 14.4042 580.657 14.5996 580.171 14.6001H580.168Z" fill="#ED753F"/>
<path d="M262.069 9.39829C263.505 9.39829 264.669 8.22088 264.669 6.76848C264.669 5.31608 263.505 4.13867 262.069 4.13867C260.634 4.13867 259.47 5.31608 259.47 6.76848C259.47 8.22088 260.634 9.39829 262.069 9.39829Z" fill="white"/>
<path d="M271.937 9.39829C273.372 9.39829 274.536 8.22088 274.536 6.76848C274.536 5.31608 273.372 4.13867 271.937 4.13867C270.501 4.13867 269.337 5.31608 269.337 6.76848C269.337 8.22088 270.501 9.39829 271.937 9.39829Z" fill="white"/>
<path d="M281.804 9.39829C283.239 9.39829 284.403 8.22088 284.403 6.76848C284.403 5.31608 283.239 4.13867 281.804 4.13867C280.368 4.13867 279.204 5.31608 279.204 6.76848C279.204 8.22088 280.368 9.39829 281.804 9.39829Z" fill="white"/>
<path d="M570.501 4.95904H559.139C559.026 4.96231 558.914 4.94272 558.809 4.9014C558.704 4.86009 558.608 4.7979 558.528 4.71851C558.447 4.63913 558.383 4.54416 558.339 4.43923C558.295 4.3343 558.272 4.22155 558.272 4.10763C558.272 3.99372 558.295 3.88095 558.339 3.77603C558.383 3.6711 558.447 3.57613 558.528 3.49674C558.608 3.41736 558.704 3.35517 558.809 3.31385C558.914 3.27253 559.026 3.25294 559.139 3.25621H570.501C570.614 3.25294 570.726 3.27253 570.831 3.31385C570.936 3.35517 571.032 3.41736 571.112 3.49674C571.193 3.57613 571.257 3.6711 571.301 3.77603C571.345 3.88095 571.368 3.99372 571.368 4.10763C571.368 4.22155 571.345 4.3343 571.301 4.43923C571.257 4.54416 571.193 4.63913 571.112 4.71851C571.032 4.7979 570.936 4.86009 570.831 4.9014C570.726 4.94272 570.614 4.96231 570.501 4.95904Z" fill="white"/>
<path d="M570.501 8.15143H559.139C559.026 8.1547 558.914 8.1351 558.809 8.09379C558.704 8.05247 558.608 7.99028 558.528 7.9109C558.447 7.83151 558.383 7.73654 558.339 7.63161C558.295 7.52668 558.272 7.41393 558.272 7.30002C558.272 7.1861 558.295 7.07334 558.339 6.96841C558.383 6.86348 558.447 6.76852 558.528 6.68913C558.608 6.60975 558.704 6.54755 558.809 6.50623C558.914 6.46492 559.026 6.44532 559.139 6.44859H570.501C570.614 6.44532 570.726 6.46492 570.831 6.50623C570.936 6.54755 571.032 6.60975 571.112 6.68913C571.193 6.76852 571.257 6.86348 571.301 6.96841C571.345 7.07334 571.368 7.1861 571.368 7.30002C571.368 7.41393 571.345 7.52668 571.301 7.63161C571.257 7.73654 571.193 7.83151 571.112 7.9109C571.032 7.99028 570.936 8.05247 570.831 8.09379C570.726 8.1351 570.614 8.1547 570.501 8.15143Z" fill="white"/>
<path d="M570.501 11.3477H559.139C559.026 11.351 558.914 11.3314 558.809 11.2901C558.704 11.2488 558.608 11.1866 558.528 11.1072C558.447 11.0278 558.383 10.9328 558.339 10.8279C558.295 10.723 558.272 10.6102 558.272 10.4963C558.272 10.3824 558.295 10.2696 558.339 10.1647C558.383 10.0598 558.447 9.96481 558.528 9.88542C558.608 9.80604 558.704 9.74385 558.809 9.70253C558.914 9.66122 559.026 9.64161 559.139 9.64488H570.501C570.614 9.64161 570.726 9.66122 570.831 9.70253C570.936 9.74385 571.032 9.80604 571.112 9.88542C571.193 9.96481 571.257 10.0598 571.301 10.1647C571.345 10.2696 571.368 10.3824 571.368 10.4963C571.368 10.6102 571.345 10.723 571.301 10.8279C571.257 10.9328 571.193 11.0278 571.112 11.1072C571.032 11.1866 570.936 11.2488 570.831 11.2901C570.726 11.3314 570.614 11.351 570.501 11.3477Z" fill="white"/>
<path d="M513.436 111.907C516.032 111.907 518.137 109.778 518.137 107.151C518.137 104.525 516.032 102.396 513.436 102.396C510.839 102.396 508.734 104.525 508.734 107.151C508.734 109.778 510.839 111.907 513.436 111.907Z" fill="#027C8A" fill-opacity="0.3"/>
<path d="M528.703 111.907C531.299 111.907 533.404 109.778 533.404 107.151C533.404 104.525 531.299 102.396 528.703 102.396C526.107 102.396 524.002 104.525 524.002 107.151C524.002 109.778 526.107 111.907 528.703 111.907Z" fill="#027C8A" fill-opacity="0.3"/>
<path d="M543.97 111.907C546.566 111.907 548.671 109.778 548.671 107.151C548.671 104.525 546.566 102.396 543.97 102.396C541.373 102.396 539.269 104.525 539.269 107.151C539.269 109.778 541.373 111.907 543.97 111.907Z" fill="#027C8A" fill-opacity="0.3"/>
<path d="M513.436 204.573C516.032 204.573 518.137 202.444 518.137 199.817C518.137 197.191 516.032 195.062 513.436 195.062C510.839 195.062 508.734 197.191 508.734 199.817C508.734 202.444 510.839 204.573 513.436 204.573Z" fill="#027C8A" fill-opacity="0.3"/>
<path d="M528.703 204.573C531.299 204.573 533.404 202.444 533.404 199.817C533.404 197.191 531.299 195.062 528.703 195.062C526.107 195.062 524.002 197.191 524.002 199.817C524.002 202.444 526.107 204.573 528.703 204.573Z" fill="#027C8A" fill-opacity="0.3"/>
<path d="M543.97 204.573C546.566 204.573 548.671 202.444 548.671 199.817C548.671 197.191 546.566 195.062 543.97 195.062C541.373 195.062 539.269 197.191 539.269 199.817C539.269 202.444 541.373 204.573 543.97 204.573Z" fill="#027C8A" fill-opacity="0.3"/>
<path d="M513.436 303.218C516.032 303.218 518.137 301.089 518.137 298.463C518.137 295.836 516.032 293.707 513.436 293.707C510.839 293.707 508.734 295.836 508.734 298.463C508.734 301.089 510.839 303.218 513.436 303.218Z" fill="#027C8A" fill-opacity="0.3"/>
<path d="M528.703 303.218C531.299 303.218 533.404 301.089 533.404 298.463C533.404 295.836 531.299 293.707 528.703 293.707C526.107 293.707 524.002 295.836 524.002 298.463C524.002 301.089 526.107 303.218 528.703 303.218Z" fill="#027C8A" fill-opacity="0.3"/>
<path d="M543.97 303.218C546.566 303.218 548.671 301.089 548.671 298.463C548.671 295.836 546.566 293.707 543.97 293.707C541.373 293.707 539.269 295.836 539.269 298.463C539.269 301.089 541.373 303.218 543.97 303.218Z" fill="#B0D5D9"/>
<path d="M379.619 111.254L355.386 95.7325C354.923 95.4363 354.39 95.2717 353.843 95.2561C353.296 95.2405 352.754 95.3744 352.276 95.6437C351.797 95.9131 351.399 96.3079 351.124 96.7867C350.848 97.2654 350.705 97.8105 350.71 98.3644L350.948 125.127C350.955 125.838 351.205 126.525 351.655 127.071C352.105 127.617 352.728 127.989 353.418 128.123C354.108 128.258 354.823 128.147 355.442 127.81C356.061 127.472 356.545 126.929 356.812 126.271L359.965 118.512L368.756 136.045C369.176 136.872 369.902 137.496 370.775 137.782C371.648 138.069 372.598 137.993 373.417 137.573C374.236 137.153 374.857 136.422 375.145 135.54C375.432 134.658 375.363 133.697 374.952 132.866L365.961 114.938L377.483 116.9C378.177 117.018 378.889 116.889 379.5 116.536C380.111 116.183 380.582 115.627 380.833 114.962C381.085 114.298 381.101 113.566 380.88 112.89C380.658 112.215 380.213 111.638 379.619 111.257L379.619 111.254Z" fill="#E6E6E6"/>
<path d="M72.789 277.886C73.3778 277.238 73.8189 276.467 74.0814 275.628C74.3439 274.789 74.4213 273.902 74.3082 273.029C74.195 272.157 73.8941 271.32 73.4266 270.577C72.9591 269.835 72.3364 269.206 71.6024 268.733L76.4793 247.916L66.1572 251.731L63.1081 270.917C62.4057 272.217 62.199 273.732 62.5271 275.176C62.8553 276.62 63.6954 277.892 64.8885 278.751C66.0816 279.61 67.5447 279.997 69.0007 279.838C70.4568 279.679 71.8046 278.985 72.789 277.888V277.886Z" fill="#FFB8B8"/>
<path d="M97.6134 190.652L93.4708 201.429C93.4708 201.429 95.2465 212.205 92.2897 214.599C89.333 216.994 90.514 216.994 90.514 218.79C90.4123 220.078 90.0436 221.331 89.4318 222.465C88.8201 223.6 87.979 224.592 86.9634 225.376C84.5964 227.172 73.9436 263.692 73.9436 263.692H63.2887C63.6329 260.909 63.6329 258.093 63.2887 255.31C62.6968 251.119 65.0645 240.341 66.2476 238.547C67.4307 236.754 66.2476 234.357 66.2476 230.765C66.2476 227.173 68.6151 225.377 68.6151 219.39C68.6151 213.403 75.7166 166.706 75.1254 161.317C74.5341 155.929 81.0437 151.14 81.0437 151.14H86.9613L97.6134 190.652Z" fill="#ED753F"/>
<path d="M75.9948 409.005H83.6624L87.3118 379.085H75.9941L75.9948 409.005Z" fill="#FFB6B6"/>
<path d="M73.493 403.691L85.7437 402.952V408.262L97.3906 416.399C97.9652 416.801 98.3978 417.378 98.6253 418.047C98.8528 418.715 98.8633 419.439 98.6553 420.114C98.4473 420.789 98.0317 421.379 97.469 421.798C96.9063 422.217 96.2261 422.443 95.5274 422.443H80.9425L78.4283 417.191L77.4467 422.443H71.9473L73.493 403.691Z" fill="#2F2E41"/>
<path d="M119.068 409.005H126.736L130.385 379.085H119.067L119.068 409.005Z" fill="#FFB6B6"/>
<path d="M116.565 403.691L128.816 402.952V408.262L140.463 416.399C141.037 416.801 141.47 417.378 141.698 418.047C141.925 418.715 141.936 419.439 141.728 420.114C141.52 420.789 141.104 421.379 140.541 421.798C139.979 422.217 139.298 422.443 138.6 422.443H124.015L121.501 417.191L120.519 422.443H115.02L116.565 403.691Z" fill="#2F2E41"/>
<path d="M72.686 383.203H72.7693L77.0266 334.557C76.0721 332.695 75.5877 330.623 75.6164 328.526C75.6452 326.428 76.1861 324.371 77.1912 322.536L77.3996 322.149L76.8522 319.582C76.1495 316.285 76.4723 312.848 77.7762 309.743L76.3728 264.363C71.4577 232.139 94.8815 211.124 94.8815 211.124H129.97L137.504 237.307C140.332 265.183 149.175 294.504 148.006 321.529C147.115 342.087 137.092 360.538 133.678 380.558L133.893 380.668C134.669 380.939 135.005 382.026 134.637 383.096C134.269 384.166 133.347 384.814 132.571 384.543L114.04 383.891C113.264 383.62 112.928 382.533 113.296 381.463C113.665 380.393 114.586 379.745 115.362 380.016L116.623 380.66L125.746 331.606L126.044 323.032L125.43 313.304L110.779 271.657L100.027 325.464L89.0452 383.745C89.3479 384.022 89.5604 384.386 89.6546 384.788C89.7487 385.19 89.7201 385.612 89.5726 385.997C89.425 386.383 89.1654 386.714 88.8281 386.947C88.4907 387.18 88.0914 387.304 87.6828 387.303H72.6866C72.1492 387.303 71.6337 387.087 71.2537 386.703C70.8737 386.318 70.6602 385.797 70.6602 385.253C70.6602 384.709 70.8737 384.188 71.2537 383.803C71.6337 383.419 72.1485 383.203 72.686 383.203Z" fill="#E6E6E6"/>
<path d="M69.7785 233.005C68.6266 233.005 67.9722 232.776 67.7186 232.287C67.347 231.568 67.9924 230.628 68.7392 229.539C69.2933 228.829 69.7304 228.032 70.0334 227.181C70.4801 225.373 73.4952 179.71 71.6917 170.587C71.2749 168.478 71.6341 165.77 72.7588 162.544C75.8322 153.735 80.0277 151.027 88.3858 145.634C89.0643 145.196 89.7708 144.738 90.5054 144.262C91.4558 143.644 91.403 141.596 91.3467 139.427C91.2849 137.017 91.2203 134.524 92.3888 132.967L92.4645 132.865L92.5868 132.836C95.4101 132.176 104.906 130.95 110.529 132.845L110.607 132.872L110.665 132.93C112.001 134.282 112.124 136.899 112.24 139.43C112.337 141.508 112.428 143.471 113.184 144.323C118.962 150.838 125.515 150.711 125.581 150.71L125.905 150.7L125.937 151.027C128.451 176.889 132.502 215.92 133.363 217.456C133.408 217.526 133.433 217.608 133.436 217.691C133.438 217.775 133.418 217.858 133.377 217.931C132.113 220.32 74.1205 233.005 69.7785 233.005Z" fill="#ED753F"/>
<path d="M107.518 125.516C116.983 125.516 124.655 117.754 124.655 108.18C124.655 98.6061 116.983 90.8447 107.518 90.8447C98.0542 90.8447 90.3818 98.6061 90.3818 108.18C90.3818 117.754 98.0542 125.516 107.518 125.516Z" fill="#FFB8B8"/>
<path d="M60.4422 100.441C63.3398 97.0223 64.7175 92.4879 67.0337 88.6064C69.3499 84.725 73.3806 81.2511 77.6392 82.1542C80.5744 82.7769 82.8434 85.3975 83.9917 88.3183C85.1401 91.2391 85.3555 94.4613 85.5563 97.6175C85.4868 91.1316 89.7093 84.8438 95.5282 82.7741C101.347 80.7044 108.311 83.013 111.967 88.2234C113.562 86.7274 115.645 85.8755 117.82 85.8293C119.995 85.783 122.111 86.5457 123.767 87.9726C127.037 90.9292 127.761 96.5577 125.356 100.329C124.148 102.165 122.319 103.491 120.212 104.059C118.106 104.627 115.867 104.397 113.916 103.413L112.565 104.67C112.915 106.014 112.786 107.44 112.202 108.698C111.618 109.957 110.615 110.967 109.369 111.553C107.359 112.375 104.52 112.237 103.768 114.373C103.242 115.864 104.225 117.456 105.27 118.602C106.316 119.748 107.557 120.932 107.682 122.517C107.872 124.907 105.427 126.586 103.206 127.091C100.481 127.642 97.6565 127.358 95.0926 126.275C92.5287 125.193 90.3425 123.361 88.8138 121.015C88.7545 120.921 88.6899 120.829 88.6199 120.738C86.8873 118.496 85.6246 115.921 84.909 113.169C84.1934 110.417 84.0399 107.547 84.4579 104.733C84.6316 103.628 84.4579 102.805 83.7027 102.543C80.4459 101.412 71.3208 103.787 68.5579 105.934C65.795 108.081 63.5851 110.923 60.925 113.207C58.2649 115.49 54.8754 117.255 51.4977 116.632C48.7925 116.134 46.4916 114.147 44.9437 111.75C43.484 109.271 42.3934 106.587 41.707 103.785C47.6948 107.284 55.8814 105.82 60.4422 100.441Z" fill="#2F2E41"/>
<path d="M134.991 277.886C134.402 277.238 133.961 276.467 133.699 275.628C133.436 274.789 133.359 273.902 133.472 273.029C133.585 272.157 133.886 271.32 134.353 270.577C134.821 269.835 135.444 269.206 136.178 268.733L131.301 247.916L141.623 251.731L144.672 270.917C145.374 272.217 145.581 273.732 145.253 275.176C144.925 276.62 144.085 277.892 142.892 278.751C141.699 279.61 140.235 279.997 138.779 279.838C137.323 279.679 135.975 278.985 134.991 277.888V277.886Z" fill="#FFB8B8"/>
<path d="M110.165 190.652L114.308 201.429C114.308 201.429 112.532 212.205 115.489 214.599C118.445 216.994 117.264 216.994 117.264 218.79C117.366 220.078 117.735 221.331 118.347 222.465C118.958 223.6 119.799 224.592 120.815 225.376C123.183 227.172 133.835 263.692 133.835 263.692H144.488C144.143 260.909 144.143 258.093 144.488 255.31C145.079 251.119 142.712 240.341 141.529 238.547C140.346 236.754 141.529 234.357 141.529 230.765C141.529 227.173 139.161 225.377 139.161 219.39C139.161 213.403 132.06 166.706 132.651 161.317C133.242 155.929 126.733 151.14 126.733 151.14H120.814L110.165 190.652Z" fill="#ED753F"/>
</g>
<defs>
<clipPath id="clip0_496_1586">
<rect width="582" height="423" fill="white"/>
</clipPath>
</defs>
</svg>
