<svg xmlns="http://www.w3.org/2000/svg" xmlns:xlink="http://www.w3.org/1999/xlink" width="14" height="14" viewBox="0 0 14 14">
  <defs>
    <clipPath id="clip-path">
      <rect id="Rectangle_4" data-name="Rectangle 4" width="14" height="14" transform="translate(121 84)" fill="#c66f6f"/>
    </clipPath>
  </defs>
  <g id="Mask_Group_4" data-name="Mask Group 4" transform="translate(-121 -84)" clip-path="url(#clip-path)">
    <g id="__TEMP__SVG__" transform="translate(121 83.918)">
      <path id="Path_4" data-name="Path 4" d="M13.574,6.787a1.369,1.369,0,0,1,.426,1,1.265,1.265,0,0,1-.426.967L8.689,13.672a1.427,1.427,0,0,1-1,.393,1.315,1.315,0,0,1-.967-.393l-6.3-6.3A1.351,1.351,0,0,1,0,6.393V1.475A1.323,1.323,0,0,1,.41.508a1.361,1.361,0,0,1,1-.41H6.3a1.335,1.335,0,0,1,.984.393ZM2.443,3.574a1.057,1.057,0,0,0,.754-.3.974.974,0,0,0,.311-.738A1.063,1.063,0,0,0,2.443,1.475a.974.974,0,0,0-.738.311,1.057,1.057,0,0,0-.3.754A1.008,1.008,0,0,0,2.443,3.574Z" fill="#027c8a"/>
    </g>
  </g>
</svg>
