<svg version="1.2" xmlns="http://www.w3.org/2000/svg" viewBox="0 0 494 368" width="494" height="368"><defs><clipPath clipPathUnits="userSpaceOnUse" id="cp1"><path d="m0-32h494v400h-494z"/></clipPath></defs><style>.a{fill:#ed753f}.b{fill:#027c8a}.c{fill:#fff}.d{opacity:.1;fill:#ed753f}.e{fill:#ffb8b8}.f{fill:#2f2e41}.g{fill:#ffb6b6}.h{fill:#9e616a}</style><g clip-path="url(#cp1)"><path class="a" d="m102.6 231.1c-22.4-22.9-31.8-46.7-26.6-67.2 6.7-26.2 36.3-44.4 81.4-49.8l0.2 1.5c-44.5 5.3-73.7 23.1-80.2 48.7-5.1 19.9 4.2 43.2 26.2 65.7z"/><path class="a" d="m318 312.3c-27.8 0-58.1-4.3-88.2-12.6-37.2-10.2-71.3-25.7-98.7-44.7l0.8-1.3c27.2 18.9 61.2 34.3 98.3 44.5 33.5 9.3 67.2 13.5 97.5 12.4l0.1 1.5q-4.8 0.2-9.8 0.2z"/><path class="a" d="m382 302.8l-0.5-1.5c25-8.7 40.6-22.9 45.1-40.8 5.8-22.8-6.8-49.3-35.5-74.6-28.9-25.4-70.5-46.5-117.2-59.4l0.3-1.4c47 12.9 88.8 34.1 117.8 59.6 29.2 25.7 42 52.7 36 76.2-4.7 18.4-20.6 32.9-46 41.9z"/><path class="a" d="m153.1 312.9c-54.8-25.2-97-58-118.9-92.3l1.2-0.8c21.8 34 63.7 66.6 118.3 91.8z"/><path class="a" d="m345.7 356.7q-8.5 0-17.3-0.4l0.1-1.5c43.6 2 82-3.4 111.2-15.7l0.6 1.4c-25.5 10.7-57.9 16.2-94.6 16.2z"/><path class="a" d="m313.9 115.5c-9.1-3.1-18.4-6-27.7-8.5-53.6-14.8-106.3-20-152.3-15.2l-0.2-1.5c46.3-4.8 99.1 0.4 152.9 15.2 9.3 2.6 18.6 5.4 27.7 8.5z"/><path class="a" d="m68.3 233.4c-22.3-22.9-31.7-46.8-26.5-67.2 6.6-26.3 36.3-44.4 81.4-49.8l0.1 1.5c-44.4 5.3-73.6 23-80.1 48.7-5.1 19.9 4.2 43.2 26.1 65.7z"/><path class="a" d="m283.8 314.6c-27.9 0-58.2-4.3-88.2-12.6-37.2-10.3-71.4-25.7-98.7-44.8l0.8-1.2c27.2 18.9 61.2 34.3 98.2 44.5 33.5 9.2 67.3 13.5 97.6 12.4v1.5q-4.8 0.2-9.7 0.2z"/><path class="a" d="m347.8 305l-0.5-1.4c24.9-8.8 40.5-22.9 45.1-40.8 5.8-22.9-6.8-49.4-35.5-74.6-28.9-25.4-70.5-46.5-117.3-59.4l0.4-1.5c46.9 13 88.8 34.2 117.8 59.7 29.2 25.7 42 52.7 36 76.1-4.7 18.5-20.6 33-46 41.9z"/><path class="a" d="m118.8 315.2c-54.7-25.3-96.9-58.1-118.8-92.3l1.2-0.9c21.7 34.1 63.7 66.7 118.2 91.8z"/><path class="a" d="m311.4 359q-8.5 0-17.2-0.4v-1.5c43.6 2 82.1-3.5 111.3-15.7l0.5 1.4c-25.4 10.7-57.9 16.2-94.6 16.2z"/><path class="a" d="m279.6 117.7c-9-3-18.3-5.9-27.6-8.4-53.6-14.8-106.3-20-152.4-15.2l-0.1-1.5c46.2-4.9 99.1 0.4 152.8 15.2 9.4 2.6 18.7 5.4 27.8 8.5z"/><path class="b" d="m24.8 192.8c10.5-12.2 27.2-19.7 42.3-15.2-13.9 10.3-23.9 25.4-28.2 42.6-1.7 6.6-2.8 14.2-8.2 18.3-3.3 2.5-7.6 3.1-11.7 2.5-4.1-0.6-7.9-2.2-11.7-3.8l-1 0.1c2.9-16.1 8.1-32.3 18.5-44.5z"/><path class="c" d="m67.1 177.9c-12.7 3.2-24 10.5-32.5 20.8-1.9 2.1-3.4 4.6-4.5 7.3-1 2.6-1.3 5.5-0.9 8.3 0.3 2.6 1 5.3 0.7 7.9-0.2 1.4-0.6 2.7-1.3 3.9-0.7 1.2-1.6 2.2-2.7 3-2.6 2-5.8 2.9-9 3.7-3.5 0.8-7.1 1.6-10 4.1-0.3 0.3-0.7-0.3-0.4-0.6 5-4.2 11.9-3.7 17.4-6.7 2.5-1.5 4.7-3.7 5.2-6.8 0.5-2.7-0.2-5.4-0.5-8.1-0.5-2.7-0.3-5.5 0.6-8.1 0.9-2.8 2.4-5.3 4.2-7.5 3.9-5.1 8.7-9.5 13.9-13 6.1-4.1 12.7-7.1 19.7-8.9 0.4-0.1 0.5 0.6 0.1 0.7z"/><path class="c" d="m37.1 195.2c-1.4-1.7-2.3-3.9-2.3-6.2-0.1-2.3 0.7-4.6 2.1-6.3 0.2-0.4 0.8 0 0.5 0.4-1.3 1.7-2 3.7-1.9 5.9 0 2.1 0.8 4.2 2.2 5.7 0.3 0.4-0.3 0.8-0.6 0.5z"/><path class="c" d="m28.9 213c4.5 0.3 8.9-1.2 12.4-4.1 0.4-0.3 0.8 0.3 0.4 0.6-3.6 3-8.3 4.5-12.9 4.2-0.5 0-0.4-0.7 0.1-0.7z"/><path class="c" d="m53.5 182.9c0.5 0.8 1.1 1.5 1.8 1.9 0.8 0.5 1.6 0.8 2.5 0.8 0.4 0.1 0.3 0.8-0.1 0.8-1-0.1-1.9-0.4-2.7-0.9-0.9-0.6-1.5-1.3-2-2.2q-0.1-0.1-0.1-0.2 0-0.2 0.1-0.3 0.1 0 0.2 0 0 0 0.1 0 0.1 0 0.1 0 0.1 0 0.1 0.1z"/><path class="b" d="m88.6 228.3q-0.4 0-0.8 0-5.7-0.2-11.2 0.6-0.5 0.1-0.9 0.2c-9 1.4-17.6 4.5-25.4 9.2q-4.7 2.8-8.9 6.3c-3.9 3.2-7.9 7-12.4 8.7q-0.7 0.2-1.4 0.4l-21.1-15.2q-0.1 0-0.1-0.1l-0.9-0.6q0.2-0.2 0.4-0.4 0.1-0.1 0.3-0.2 0-0.1 0.1-0.2 0 0 0.1 0 0-0.1 0.1-0.1 1.2-1.2 2.4-2.3 0 0 0 0c6.3-5.5 13.1-10.6 20.4-14.5q0.3-0.2 0.6-0.3 5-2.6 10.3-4.3 2.9-1 5.8-1.6c5.2-1 10.4-1.2 15.6-0.6 10.3 1.3 20.1 6 26.5 14.3q0.3 0.4 0.5 0.7z"/><path class="c" d="m88.4 228.5c-12-5.4-25.2-6.7-38-3.8-2.7 0.6-5.3 1.6-7.8 3.1-2.3 1.4-4.2 3.5-5.5 6-1.3 2.4-2.3 4.9-4.1 6.8-0.9 1-2 1.8-3.2 2.3-1.2 0.5-2.6 0.7-3.9 0.7-3.3-0.1-6.3-1.4-9.3-2.7-3.3-1.5-6.7-3.1-10.4-3-0.4 0-0.4-0.7 0-0.7 6.4-0.3 11.6 4.5 17.8 5.5 2.9 0.4 5.9 0 8.1-2.1 1.9-1.9 3-4.5 4.2-6.8 1.2-2.5 3-4.6 5.2-6.2 2.4-1.5 5-2.7 7.7-3.3 6.1-1.6 12.4-2.1 18.7-1.6 7.2 0.5 14.2 2.2 20.8 5.2 0.4 0.2 0.1 0.8-0.3 0.6z"/><path class="c" d="m54.5 223.5c-0.2-2.2 0.4-4.5 1.7-6.4 1.3-1.8 3.2-3.2 5.3-3.7 0.4-0.1 0.6 0.6 0.2 0.7-2 0.5-3.8 1.7-5 3.5-1.1 1.7-1.7 3.8-1.5 5.9 0 0.5-0.7 0.5-0.7 0z"/><path class="c" d="m37.6 232.6c3.4 3 7.8 4.7 12.3 4.5 0.4 0 0.4 0.7 0 0.7-4.7 0.2-9.3-1.5-12.8-4.7-0.4-0.3 0.1-0.8 0.5-0.5z"/><path class="c" d="m74.7 224c-0.1 0.9 0 1.8 0.3 2.7 0.3 0.8 0.8 1.6 1.5 2.1 0.3 0.3-0.2 0.9-0.5 0.6-0.7-0.7-1.3-1.5-1.7-2.5-0.3-0.9-0.4-1.9-0.3-2.9q0-0.1 0.1-0.2 0.1-0.2 0.2-0.2 0.2 0 0.3 0.1 0.1 0.2 0.1 0.3z"/><path class="b" d="m435 292.9c-5.9-15.2-19.2-28-34.9-29.1 9.8 14.5 14.4 32.3 12.8 50-0.6 6.8-1.9 14.3 1.8 20 2.3 3.6 6.2 5.7 10.2 6.5 4 0.9 8.2 0.7 12.3 0.5l0.9 0.5c2.4-16.2 2.8-33.3-3.1-48.4z"/><path class="c" d="m400 264.1c10.9 7.4 19.2 18.2 23.9 30.9 1 2.7 1.7 5.6 1.9 8.5 0.1 2.8-0.6 5.6-1.9 8.1-1.1 2.4-2.6 4.6-3.2 7.3-0.3 1.3-0.3 2.7 0 4 0.2 1.4 0.8 2.7 1.5 3.8 1.9 2.8 4.6 4.8 7.3 6.6 3 2 6.2 4.1 8.1 7.4 0.3 0.4 0.8 0 0.6-0.4-3.3-5.7-10-7.6-14.2-12.4-1.9-2.3-3.3-5.2-2.8-8.2 0.5-2.7 2-5.1 3.2-7.4 1.3-2.5 2-5.2 2.1-7.9-0.1-3-0.6-5.8-1.6-8.6-2.1-6.1-5.1-11.9-8.9-17.1-4.4-6-9.7-11.1-15.7-15.2-0.4-0.3-0.7 0.4-0.3 0.6z"/><path class="c" d="m422.6 290.8c2-1.1 3.5-2.8 4.2-5 0.8-2.1 0.9-4.5 0.1-6.7-0.1-0.4-0.8-0.2-0.6 0.3 0.7 2 0.6 4.2-0.1 6.2-0.8 2-2.1 3.6-4 4.6-0.3 0.2 0 0.9 0.4 0.6z"/><path class="c" d="m424.7 310.5c-4.4-1.3-8.1-4.2-10.4-8.2-0.3-0.4-0.8 0-0.6 0.4 2.4 4.2 6.3 7.2 10.8 8.5 0.5 0.1 0.6-0.6 0.2-0.7z"/><path class="c" d="m411.2 273.5c-0.7 0.6-1.5 1-2.3 1.2-0.9 0.2-1.8 0.2-2.6-0.1-0.4-0.1-0.6 0.6-0.2 0.7 1 0.3 1.9 0.3 2.9 0.1 0.9-0.2 1.8-0.6 2.5-1.3q0.2 0 0.2-0.2 0-0.1-0.1-0.3 0-0.1-0.2-0.1-0.1 0-0.2 0z"/><path class="b" d="m363.5 304q0.4 0.1 0.8 0.3 5.3 1.8 10.3 4.5 0.4 0.3 0.8 0.5c7.9 4.4 15 10.4 20.9 17.5q3.5 4.3 6.4 9.1c2.6 4.4 5.1 9.3 8.8 12.5q0.6 0.5 1.2 0.9l24.8-6.9q0.1-0.1 0.2-0.1l1-0.3q-0.2-0.2-0.3-0.5-0.1-0.1-0.2-0.3 0-0.1-0.1-0.2 0 0 0 0 0-0.1-0.1-0.2-0.8-1.5-1.6-2.9 0 0 0 0c-4.1-7.5-8.8-14.6-14.4-20.8q-0.3-0.3-0.5-0.6-3.9-4.2-8.3-7.6-2.4-1.9-5-3.5c-4.5-2.8-9.4-4.8-14.4-6-10.2-2.4-21-1.4-29.7 4.2q-0.3 0.2-0.6 0.4z"/><path class="c" d="m363.6 304.3c13-0.9 25.9 2.5 36.9 9.7 2.4 1.5 4.6 3.4 6.4 5.6 1.8 2.2 2.9 4.9 3.3 7.7 0.4 2.6 0.6 5.3 1.6 7.8 0.6 1.2 1.3 2.3 2.3 3.2 1 0.9 2.2 1.6 3.4 2 3.2 1.1 6.5 1 9.7 0.8 3.6-0.3 7.3-0.6 10.7 0.8 0.5 0.1 0.7-0.5 0.3-0.7-6-2.5-12.4 0.2-18.5-1-2.9-0.6-5.6-2.1-7-4.8-1.2-2.5-1.4-5.3-1.8-7.9-0.3-2.8-1.3-5.4-2.9-7.6-1.7-2.3-3.8-4.3-6.1-5.9-5.3-3.6-11.1-6.3-17.1-8.1-7-2-14.2-2.8-21.3-2.3-0.5 0-0.3 0.8 0.1 0.7z"/><path class="c" d="m397.1 311.5c0.9-2.1 1.1-4.5 0.5-6.7-0.6-2.2-2-4.1-3.8-5.4-0.4-0.2-0.8 0.4-0.4 0.6 1.7 1.2 3 3 3.5 5 0.6 2.1 0.4 4.3-0.4 6.2-0.2 0.5 0.4 0.7 0.6 0.3z"/><path class="c" d="m410.1 325.9c-4.2 1.7-8.8 1.7-13 0-0.4-0.2-0.7 0.5-0.2 0.7 4.3 1.7 9.2 1.7 13.5 0 0.5-0.2 0.2-0.9-0.3-0.7z"/><path class="c" d="m378 304.9c-0.2 0.8-0.6 1.7-1.2 2.4-0.6 0.6-1.3 1.2-2.1 1.5-0.4 0.1-0.1 0.8 0.3 0.6 0.9-0.3 1.7-0.9 2.3-1.7 0.7-0.7 1.1-1.6 1.3-2.6q0.1-0.1 0-0.3-0.1-0.1-0.2-0.2-0.1 0-0.3 0.1-0.1 0-0.1 0.2z"/><path class="d" d="m110.4 299.6q0 2.3 0.1 4.6 0.2 2.7 0.6 5.5c0.8 6 2.5 11.9 4.9 17.6l0.3 0.8 0.2 0.4q0.1 0.2 0.2 0.4 0.1 0.3 0.3 0.6 0.1 0.3 0.3 0.6 0 0.1 0 0.1 0.2 0.3 0.3 0.6 0 0.1 0.1 0.1 0.1 0.3 0.3 0.7 0.2 0.3 0.3 0.7 0.5 0.8 1 1.6 0.1 0.3 0.2 0.5 0.2 0.3 0.3 0.5 0.1 0.1 0.2 0.3 0.1 0.3 0.3 0.5 0.3 0.6 0.7 1.1 0.1 0.3 0.3 0.5v0.1q0.5 0.7 1 1.5 0 0 0 0 0 0 0 0 0.4 0.6 0.8 1.2 0.3 0.4 0.6 0.7 0.2 0.3 0.4 0.6 0.1 0.1 0.1 0.2 0.1 0.1 0.1 0.1 1 1.3 2 2.6l0.1 0.1q0.1 0.1 0.2 0.1 0.1 0.2 0.1 0.3 0.1 0.1 0.2 0.2c3.6 4.2 7.7 7.9 12.1 11.1q0.9 0.6 1.8 1.2 0.3 0.2 0.5 0.3 0 0.1 0.1 0.1 0.1 0.1 0.3 0.2 0.1 0 0.2 0.1 0.5 0.3 1 0.6 0.1 0.1 0.2 0.2 0.2 0.1 0.3 0.1 0 0 0 0 0.6 0.4 1.3 0.8 0.3 0.2 0.6 0.3 0.8 0.5 1.6 0.9 0.3 0.1 0.6 0.3 0.2 0.1 0.5 0.2 0.1 0.1 0.1 0.1 0.2 0.1 0.4 0.2 0.2 0.1 0.4 0.2 0.3 0.1 0.5 0.2 1 0.5 1.9 0.8 3.3 1.5 6.7 2.5 0.2 0 0.4 0.1 1.4 0.4 2.9 0.8 2.6 0.6 5.3 1l0.6 0.1q0.1 0 0.1 0 0 0 0 0l0.7 0.1q0 0 0.1 0 0.3 0 0.6 0.1h0.7l0.6 0.1q0 0 0 0 0.3 0 0.5 0.1h0.1 0.4q2.5 0.2 5.1 0.2 2.8 0 5.6-0.2l1.2-0.2q0.2 0 0.3 0 0 0 0.1 0 0 0 0.1 0 0 0 0 0 0.2 0 0.4-0.1h0.5q0.2 0 0.4-0.1 0.1 0 0.1 0 0.2 0 0.4 0l0.1-0.1q0.2 0 0.4 0 5-0.8 9.8-2.3 0.3-0.1 0.6-0.2 0 0 0 0 0.1 0 0.1-0.1 0.7-0.2 1.4-0.4 0.9-0.4 1.8-0.7 0.3-0.1 0.5-0.2 0.5-0.2 1-0.4 0.9-0.4 1.7-0.8 0.8-0.3 1.6-0.7 0 0 0 0 0.2-0.1 0.3-0.2h0.1q4.2-2.1 8.1-4.8 1.2-0.9 2.4-1.8 1-0.8 1.9-1.5 4.7-3.9 8.7-8.7 0.3-0.3 0.5-0.6 0.1-0.1 0.1-0.1 0.2-0.2 0.4-0.4 0.2-0.3 0.4-0.6 0.1-0.1 0.1-0.1 0.2-0.3 0.4-0.5 0.1-0.1 0.2-0.2 0.5-0.7 1-1.5 0.1-0.1 0.3-0.3 0.6-1 1.3-1.9 0.2-0.4 0.4-0.7l0.5-0.8q0.2-0.3 0.5-0.7v-0.1q0.2-0.3 0.4-0.7 0.2-0.3 0.4-0.6 0.1-0.2 0.2-0.4 0-0.1 0.1-0.1l0.5-1q0.3-0.5 0.6-1.1 0.1-0.2 0.2-0.4 0.1-0.1 0.1-0.2 0.1-0.2 0.3-0.5 0.1-0.3 0.2-0.6 0.2-0.2 0.3-0.5 0.1-0.2 0.2-0.4 0-0.1 0-0.1 0.1-0.1 0.1-0.2 0 0 0 0 0.1-0.2 0.2-0.4 0.1-0.3 0.3-0.6 0.1-0.2 0.1-0.4 0.2-0.2 0.3-0.5 0.1-0.3 0.2-0.6 0.1-0.1 0.1-0.2 0-0.1 0.1-0.2 0.1-0.4 0.3-0.7 0.1-0.4 0.3-0.8 0.1-0.4 0.3-0.8v-0.1q2.1-5.8 3.2-12 0.6-3.5 0.9-7.1 0-0.2 0-0.4 0.2-2.4 0.2-4.8 0-1.1 0-2.2c-0.5-14.8-5.6-29.1-14.6-40.7q-0.2-0.4-0.5-0.8-0.4-0.4-0.7-0.7c-6.7-8.2-15.1-14.6-24.6-18.7-9.5-4.2-19.8-5.9-30.1-5.2-10.3 0.8-20.2 4.1-29.1 9.6-8.8 5.5-16.3 13.1-21.8 22.2q-0.4 0.7-0.9 1.5-0.4 0.7-0.8 1.5c-5.5 10.2-8.4 21.8-8.4 33.5z"/><path class="b" d="m173.5 254.8c10.8 2.9 21.9 4.6 33.1 5q2.5 0.1 5 0c3.7-0.4 6.9-1.6 10.4-2.2 1.7-0.4 3.6-0.6 5.3-0.9q-0.5-0.8-1.2-1.5c-3.6 0.3-7.4 1.3-11.1 1.8-6.4 0.9-13.5-0.1-18.3-2.4-2.3-1.1-4.1-2.5-6.4-3.6q-0.5-0.3-1-0.3c-0.7-0.1-1.4 0.1-2 0.5-3.9 2-9.5 3.7-14.8 2.8-0.4 0.3 0.4 0.7 1 0.8z"/><path class="c" d="m150.3 262q-0.1 0-0.2 0 0.3-0.2 0.6-0.4z"/><path class="b" d="m118.8 266.1q3.3 0.3 6.6 0.4 2.5 0.1 5.1 0c3.7-0.4 6.8-1.6 10.4-2.2 3.2-0.6 7.2-0.9 9.2-2.3-5.3-0.9-10.8 1-16.3 1.7-4.4 0.6-8.9 0.4-13.3-0.6q-0.9 1.4-1.7 3z"/><path class="a" d="m145.3 360q0.8 0.5 1.6 0.9 0.3 0.1 0.6 0.3 0.2 0.1 0.5 0.2 0.1 0.1 0.1 0.1 0.2 0.1 0.4 0.2 0.2 0.1 0.4 0.2 0.3 0.1 0.5 0.2 1 0.5 1.9 0.8 3.3 1.5 6.7 2.5 0.2 0 0.4 0.1 1.4 0.4 2.9 0.8 2.6 0.6 5.3 1l0.6 0.1q0.1 0 0.1 0 0 0 0 0l0.7 0.1q0 0 0.1 0 0.3 0 0.6 0.1h0.7l0.6 0.1q0 0 0 0 0.3 0 0.5 0.1h0.1 0.4q2.5 0.2 5.1 0.2 2.8 0 5.6-0.2l1.2-0.2q0.2 0 0.3 0 0 0 0.1 0 0 0 0.1 0 0 0 0 0 0.2 0 0.4-0.1h0.5q0.2 0 0.4-0.1 0.1 0 0.1 0 0.2 0 0.4 0l0.1-0.1q0.2 0 0.4 0 5-0.8 9.8-2.3 0.3-0.1 0.6-0.2c-0.8-3.8-2.4-7.4-4.8-10.5-2.3-3-5.3-5.5-8.7-7.2 0.9-0.8 1.4-1.9 1.7-3.1q0.2-1.1 0-2.3-0.2-1.1-0.8-2.1c-0.8-1.3-2-2.2-3.5-2.5l-9-2c-1.5-0.3-3 0.1-4.2 0.9-1.2 0.9-2.1 2.2-2.4 3.7q-0.1 0.7-0.1 1.4c-8.7 6.1-15 12.3-19 18.9z"/><path class="e" d="m172.1 331.4c10.4 0 18.8-8.8 18.8-19.6 0-10.8-8.4-19.6-18.8-19.6-10.5 0-18.9 8.8-18.9 19.6 0 10.8 8.4 19.6 18.9 19.6z"/><path class="f" d="m160.3 328.7c-2-1.4-4.1-4.2-5.4-6.2-1.8-2.7-3.1-5.8-3.7-9-0.6-3.3-0.5-6.6 0.2-9.8 0.2-1.3 0.8-2.5 1.6-3.5 0.9-0.9 2.3-1.3 3.4-0.7q-0.4-1.2-0.4-2.5 0.1-1.4 0.7-2.6c0.7-1.5 1.8-2.9 3.2-4 2.6-2 5.7-3.4 8.9-3.8 3.3-0.4 6.6 0.2 9.6 1.6 1.2 0.5-0.8-3.9 0.5-3.4 1.2 0.5 2.5 0.4 3.7-0.1 1.2-0.6 5 3 4.6 1.7 0.9 0.4 1.6 1.1 2.2 1.9 0.6 0.8 1 1.7 1.1 2.7 0.1 1 0 2-0.3 3-0.4 0.9-0.9 1.7-1.7 2.4-0.9 0.8-2.2 1.3-3.2 2.1-1.9 1.3-3.2 3.4-3.7 5.7-0.6 2.3-0.3 4.7 0.8 6.8q-1.7-1.1-3.6-1.6-1-0.3-2 0-1 0.2-1.7 0.9-0.7 0.8-1 1.7-0.3 1-0.2 2c0.1 1.3 0.4 2.6 0.4 4 0.1 3.9 2.1 11.3-0.8 13.4-2.3 1.6-10.4-0.7-13.2-2.7z"/><path class="c" d="m185 213.7q-0.6 0-1.1-0.3c-0.6-0.2-1.1-0.6-1.4-1.1-0.3-0.5-0.5-1.1-0.5-1.7v-3.1c0-0.7-0.2-1.3-0.7-1.8-0.4-0.4-1-0.7-1.6-0.7-0.8 0-1.6-0.3-2.1-0.9-0.6-0.6-0.9-1.4-0.9-2.2v-42.5c0-0.8 0.3-1.6 0.9-2.2 0.5-0.6 1.3-0.9 2.1-0.9h135.4c0.7 0 1.5 0.3 2.1 0.9 0.5 0.6 0.8 1.4 0.8 2.2v42.5c0 0.8-0.3 1.6-0.8 2.2-0.6 0.6-1.4 0.9-2.1 0.9h-119.6q-0.5 0-0.9 0.2-0.4 0.2-0.8 0.5l-6.7 7.1q-0.4 0.4-1 0.6-0.5 0.3-1.1 0.3z"/><path fill-rule="evenodd" class="b" d="m185 214.3q-0.7 0-1.4-0.3c-0.6-0.3-1.2-0.7-1.6-1.4-0.4-0.6-0.6-1.3-0.6-2v-3.1c0-0.5-0.2-1-0.5-1.3-0.3-0.4-0.8-0.6-1.2-0.6-1 0-1.9-0.3-2.6-1-0.6-0.7-1-1.7-1-2.7v-42.5c0-1 0.4-1.9 1-2.6 0.7-0.7 1.6-1.1 2.6-1.1h135.4c0.9 0 1.8 0.4 2.5 1.1 0.7 0.7 1 1.6 1 2.6v42.5c0 1-0.3 2-1 2.7-0.7 0.7-1.6 1-2.5 1h-119.6q-0.3 0-0.7 0.2-0.3 0.1-0.5 0.4l-6.8 7q-0.5 0.5-1.1 0.8-0.7 0.3-1.4 0.3zm-5.3-57.4c-0.7 0-1.3 0.3-1.7 0.8-0.4 0.4-0.7 1.1-0.7 1.7v42.5c0 0.7 0.3 1.3 0.7 1.8 0.4 0.4 1 0.7 1.7 0.7 0.8 0 1.5 0.3 2.1 0.9 0.5 0.6 0.8 1.4 0.8 2.2v3.1c0 0.5 0.2 0.9 0.4 1.3q0.4 0.7 1.1 0.9 0.7 0.3 1.4 0.2 0.7-0.2 1.2-0.7l6.7-7q0.4-0.5 1-0.7 0.5-0.2 1.1-0.2h119.6c0.6 0 1.2-0.3 1.6-0.7 0.5-0.5 0.7-1.1 0.7-1.8v-42.5c0-0.6-0.2-1.3-0.7-1.7-0.4-0.5-1-0.8-1.6-0.8z"/><path class="d" d="m476.3 149.7q0 2.3-0.1 4.6-0.2 2.8-0.6 5.5c-0.8 6.1-2.5 12-4.9 17.6l-0.3 0.8-0.2 0.4q-0.1 0.3-0.2 0.5-0.1 0.2-0.3 0.5-0.1 0.3-0.3 0.7 0 0 0 0.1-0.2 0.2-0.3 0.5 0 0.1-0.1 0.1-0.1 0.4-0.3 0.7-0.2 0.3-0.3 0.7-0.5 0.8-1 1.7-0.1 0.2-0.2 0.5-0.2 0.2-0.3 0.4-0.1 0.2-0.2 0.3-0.1 0.3-0.3 0.5-0.3 0.6-0.7 1.2-0.1 0.2-0.3 0.5-0.5 0.7-1 1.5 0 0 0 0 0 0 0 0-0.4 0.6-0.8 1.2-0.3 0.4-0.6 0.8-0.2 0.3-0.4 0.6-0.1 0-0.1 0.1-0.1 0.1-0.1 0.2-1 1.3-2 2.5l-0.1 0.1q-0.1 0.1-0.2 0.2-0.1 0.1-0.1 0.2-0.1 0.1-0.2 0.2c-3.6 4.2-7.7 7.9-12.1 11.1q-0.9 0.6-1.8 1.2-0.3 0.2-0.5 0.3 0 0.1-0.1 0.1-0.1 0.1-0.3 0.2-0.1 0.1-0.2 0.1-0.5 0.4-1 0.7-0.1 0-0.2 0.1-0.2 0.1-0.3 0.2 0 0 0 0-0.6 0.3-1.3 0.7-0.3 0.2-0.6 0.4-0.8 0.4-1.6 0.8-0.3 0.2-0.6 0.3-0.2 0.1-0.5 0.3-0.1 0-0.1 0-0.2 0.1-0.4 0.2-0.2 0.1-0.4 0.2-0.3 0.1-0.5 0.3-1 0.4-1.9 0.8-3.3 1.4-6.7 2.4-0.2 0.1-0.4 0.1-1.4 0.4-2.9 0.8-2.6 0.6-5.3 1l-0.6 0.1q-0.1 0-0.1 0 0 0 0 0l-0.7 0.1q0 0-0.1 0-0.3 0.1-0.6 0.1l-0.7 0.1h-0.6q0 0 0 0-0.3 0.1-0.5 0.1h-0.1-0.4q-2.5 0.2-5.1 0.2-2.8 0-5.6-0.2l-1.2-0.1q-0.2 0-0.3-0.1 0 0-0.1 0 0 0-0.1 0 0 0 0 0-0.2 0-0.4 0l-0.5-0.1q-0.2 0-0.4-0.1-0.1 0-0.1 0-0.2 0-0.4 0h-0.1q-0.2-0.1-0.4-0.1-5-0.7-9.8-2.3-0.3-0.1-0.6-0.2 0 0 0 0-0.1 0-0.1 0-0.7-0.3-1.4-0.5-0.9-0.3-1.8-0.7-0.3-0.1-0.5-0.2-0.5-0.2-1-0.4-0.9-0.4-1.7-0.7-0.8-0.4-1.6-0.8 0 0 0 0-0.2-0.1-0.3-0.2h-0.1q-4.2-2.1-8.1-4.8-1.2-0.9-2.4-1.8-1-0.7-1.9-1.5-4.7-3.9-8.7-8.6-0.3-0.4-0.5-0.7-0.1 0-0.1-0.1-0.2-0.2-0.4-0.4-0.2-0.3-0.4-0.6-0.1 0-0.1-0.1-0.2-0.2-0.4-0.5-0.1-0.1-0.2-0.2-0.5-0.7-1-1.4-0.1-0.2-0.3-0.4-0.6-0.9-1.3-1.9-0.2-0.4-0.4-0.7l-0.5-0.7q-0.2-0.4-0.5-0.8-0.2-0.4-0.4-0.8-0.2-0.3-0.4-0.6-0.1-0.2-0.2-0.4 0 0-0.1-0.1l-0.5-0.9q-0.3-0.6-0.6-1.1-0.1-0.3-0.2-0.5-0.1-0.1-0.1-0.1-0.1-0.3-0.3-0.6-0.1-0.3-0.2-0.5-0.2-0.3-0.3-0.6-0.1-0.2-0.2-0.4 0 0 0 0-0.1-0.1-0.1-0.2 0 0 0-0.1-0.1-0.2-0.2-0.4-0.1-0.3-0.3-0.5-0.1-0.2-0.1-0.4-0.2-0.3-0.3-0.6-0.1-0.3-0.2-0.6-0.1-0.1-0.1-0.1 0-0.2-0.1-0.3-0.1-0.3-0.3-0.7-0.1-0.4-0.3-0.8-0.1-0.4-0.3-0.8v-0.1q-2.1-5.8-3.2-12-0.6-3.5-0.9-7.1 0-0.2 0-0.3-0.2-2.5-0.2-4.9 0-1.1 0-2.1c0.5-14.9 5.6-29.2 14.6-40.8q0.2-0.4 0.5-0.8 0.4-0.3 0.7-0.7c6.6-8.2 15.1-14.6 24.6-18.7 9.5-4.1 19.8-5.9 30.1-5.1 10.3 0.7 20.2 4 29.1 9.5 8.8 5.5 16.3 13.1 21.8 22.2q0.4 0.7 0.9 1.5 0.4 0.7 0.8 1.5c5.5 10.2 8.4 21.8 8.4 33.5z"/><path class="b" d="m413.2 105c-10.8 2.9-21.9 4.5-33.1 4.9q-2.5 0.2-5 0c-3.7-0.3-6.9-1.5-10.4-2.2-1.7-0.3-3.6-0.6-5.3-0.9q0.5-0.8 1.2-1.5c3.6 0.3 7.4 1.4 11.1 1.9 6.4 0.8 13.5-0.1 18.3-2.4 2.3-1.2 4.1-2.6 6.4-3.7q0.5-0.2 1-0.3c0.7 0 1.4 0.2 2 0.5 3.9 2.1 9.5 3.7 14.8 2.8 0.4 0.3-0.4 0.7-1 0.9z"/><path class="c" d="m436.4 112.2q0.1 0 0.2 0-0.3-0.2-0.6-0.5z"/><path class="b" d="m467.9 116.2q-3.3 0.3-6.6 0.4-2.5 0.2-5.1 0c-3.7-0.3-6.9-1.5-10.4-2.2-3.2-0.6-7.2-0.9-9.2-2.2 5.3-1 10.8 0.9 16.3 1.7 4.4 0.5 8.9 0.3 13.3-0.7q0.9 1.5 1.7 3z"/><path class="g" d="m403.2 179.7c10.9 0 19.7-9.5 19.7-21.1 0-11.6-8.8-21-19.7-21-11 0-19.8 9.4-19.8 21 0 11.6 8.8 21.1 19.8 21.1z"/><path class="a" d="m441.4 210.2q-0.8 0.4-1.6 0.8-0.3 0.2-0.6 0.3-0.2 0.1-0.5 0.3-0.1 0-0.1 0-0.2 0.1-0.4 0.2-0.2 0.1-0.4 0.2-0.3 0.1-0.5 0.3-1 0.4-1.9 0.8-3.3 1.4-6.7 2.4-0.2 0.1-0.4 0.1-1.4 0.4-2.9 0.8-2.6 0.6-5.3 1l-0.6 0.1q-0.1 0-0.1 0 0 0 0 0l-0.7 0.1q0 0-0.1 0-0.3 0.1-0.6 0.1l-0.7 0.1h-0.6q0 0 0 0-0.3 0.1-0.5 0.1h-0.1-0.4q-2.5 0.2-5.1 0.2-2.8 0-5.6-0.2l-1.2-0.1q-0.2 0-0.3-0.1 0 0-0.1 0 0 0-0.1 0 0 0 0 0-0.2 0-0.4 0l-0.5-0.1q-0.2 0-0.4 0-0.1-0.1-0.1-0.1-0.2 0-0.4 0h-0.1q-0.2-0.1-0.4-0.1-5-0.7-9.9-2.3-0.2-0.1-0.5-0.2c0.8-3.8 2.4-7.4 4.8-10.4 2.3-3.1 5.3-5.6 8.7-7.3-0.9-0.8-1.4-1.9-1.7-3q-0.2-1.2 0-2.4 0.2-1.1 0.8-2.1c0.8-1.3 2-2.2 3.5-2.5l9-1.9c1.5-0.3 3 0 4.2 0.8 1.2 0.9 2.1 2.2 2.4 3.7q0.1 0.7 0.1 1.4c8.7 6.1 15 12.3 19 19z"/><path class="f" d="m456 149.5c-3.4-4-5-9.4-7.6-14.1-2.7-4.6-7.4-8.7-12.3-7.7-3.4 0.8-6.1 3.9-7.4 7.4-1.3 3.5-1.6 7.3-1.8 11.1 0.1-7.8-4.8-15.3-11.5-17.7-6.8-2.5-14.9 0.3-19.1 6.5-1.8-1.8-4.3-2.8-6.8-2.9-2.5 0-4.9 0.9-6.9 2.6-3.8 3.5-4.6 10.2-1.8 14.7 2.8 4.5 8.8 6.2 13.2 3.7l1.6 1.5c-0.9 3.2 0.8 7 3.7 8.2 2.3 1 5.6 0.8 6.5 3.3 0.6 1.8-0.5 3.7-1.7 5.1-1.3 1.3-2.7 2.8-2.8 4.6-0.3 2.9 2.6 4.9 5.2 5.5 6.2 1.4 13-1.5 16.6-7.2q0.1-0.2 0.3-0.4c2-2.6 3.4-5.7 4.3-9 0.8-3.3 1-6.7 0.5-10-0.2-1.4 0-2.3 0.8-2.7 3.8-1.3 14.4 1.5 17.6 4.1 3.2 2.5 5.8 5.9 8.8 8.7 3.1 2.7 7 4.8 11 4 3.1-0.6 5.8-2.9 7.6-5.8 1.8-2.8 2.8-6.2 3.7-9.5-6.9 4.2-16.4 2.4-21.7-4z"/><path class="d" d="m50.6 107.2q0 2.3 0.1 4.6 0.2 2.7 0.6 5.4c0.8 6.1 2.5 12 4.9 17.6l0.3 0.9 0.2 0.4q0.1 0.2 0.2 0.4 0.1 0.3 0.2 0.6 0.2 0.3 0.4 0.6 0 0.1 0 0.1 0.1 0.3 0.3 0.6 0 0 0 0.1 0.2 0.3 0.4 0.6 0.1 0.4 0.3 0.7 0.5 0.9 0.9 1.7 0.2 0.3 0.3 0.5 0.1 0.2 0.3 0.5 0.1 0.1 0.2 0.3 0.1 0.2 0.3 0.5 0.3 0.6 0.6 1.1h0.1q0.1 0.3 0.3 0.5 0.5 0.8 1 1.6 0 0 0 0 0 0 0 0 0.4 0.6 0.8 1.2 0.3 0.3 0.5 0.7 0.3 0.3 0.5 0.6 0 0.1 0.1 0.1v0.1q0.1 0 0.1 0.1 1 1.3 2 2.6l0.1 0.1q0.1 0.1 0.1 0.1 0.1 0.1 0.2 0.2 0.1 0.1 0.2 0.2c3.6 4.2 7.6 8 12.1 11.2q0.9 0.6 1.8 1.2 0.2 0.1 0.5 0.3 0 0 0.1 0.1 0.1 0.1 0.2 0.1 0.2 0.1 0.3 0.2 0.5 0.3 1 0.6 0.1 0.1 0.2 0.2 0.1 0 0.3 0.1 0 0 0 0 0.6 0.4 1.2 0.7 0.4 0.2 0.7 0.4 0.8 0.5 1.6 0.9 0.3 0.1 0.6 0.3 0.2 0.1 0.5 0.2 0 0 0.1 0.1 0.2 0.1 0.4 0.2 0.2 0.1 0.4 0.2 0.3 0.1 0.5 0.2 0.9 0.4 1.9 0.8 3.3 1.4 6.7 2.5 0.2 0 0.3 0.1 1.5 0.4 3 0.7 2.6 0.7 5.3 1.1l0.6 0.1q0.1 0 0.1 0 0 0 0 0l0.7 0.1q0 0 0 0 0.4 0 0.7 0.1h0.7l0.6 0.1q0 0 0 0 0.3 0 0.5 0l0.5 0.1q2.5 0.2 5.1 0.2 2.8 0 5.6-0.3l1.2-0.1q0.1 0 0.3 0 0 0 0.1 0 0 0 0 0 0.1 0 0.1 0 0.2-0.1 0.4-0.1h0.5q0.2-0.1 0.4-0.1 0.1 0 0.1 0 0.2 0 0.4-0.1h0.1q0.2 0 0.3 0 5.1-0.8 9.9-2.3 0.3-0.1 0.5-0.2 0.1 0 0.1 0 0 0 0.1-0.1 0.7-0.2 1.4-0.4 0.9-0.4 1.8-0.7 0.3-0.1 0.5-0.2 0.5-0.2 1-0.5 0.9-0.3 1.7-0.7 0.8-0.4 1.5-0.7 0.1 0 0.1 0 0.2-0.1 0.3-0.2 4.3-2.1 8.1-4.8 1.3-0.9 2.5-1.8 1-0.8 1.9-1.6 4.7-3.9 8.7-8.6 0.3-0.3 0.5-0.6 0.1-0.1 0.1-0.1 0.2-0.2 0.3-0.5 0.3-0.2 0.5-0.5 0.1-0.1 0.1-0.1v-0.1q0.2-0.2 0.4-0.4 0-0.1 0.1-0.2 0.6-0.7 1.1-1.5 0.1-0.2 0.3-0.4 0.6-0.9 1.3-1.8 0.2-0.4 0.4-0.8l0.5-0.7q0.2-0.4 0.4-0.7l0.1-0.1q0.2-0.3 0.4-0.7 0.2-0.3 0.4-0.6 0.1-0.2 0.2-0.4 0-0.1 0.1-0.2l0.5-0.9q0.3-0.5 0.6-1.1 0.1-0.2 0.2-0.4 0-0.1 0.1-0.2 0.1-0.3 0.3-0.5 0.1-0.3 0.2-0.6 0.2-0.3 0.3-0.5 0.1-0.2 0.2-0.5 0 0 0 0 0-0.1 0.1-0.2 0 0 0 0 0.1-0.2 0.2-0.4 0.1-0.3 0.3-0.6 0-0.2 0.1-0.4 0.1-0.3 0.3-0.6 0.1-0.2 0.2-0.5 0-0.1 0.1-0.2 0-0.1 0.1-0.2 0.1-0.4 0.3-0.8 0.1-0.4 0.3-0.8 0.1-0.3 0.3-0.7v-0.1q2.1-5.9 3.2-12 0.6-3.5 0.9-7.1 0-0.2 0-0.4 0.2-2.4 0.2-4.8 0-1.1-0.1-2.2c-0.4-14.8-5.5-29.2-14.5-40.7q-0.3-0.4-0.6-0.8-0.3-0.4-0.6-0.8c-6.7-8.1-15.1-14.5-24.6-18.6-9.5-4.2-19.8-5.9-30.1-5.2-10.3 0.8-20.2 4.1-29.1 9.6-8.8 5.5-16.3 13.1-21.8 22.1q-0.4 0.8-0.9 1.5-0.4 0.8-0.8 1.6c-5.6 10.2-8.5 21.7-8.4 33.5z"/><path class="b" d="m113.7 62.4c10.8 2.9 21.9 4.6 33.1 5q2.5 0.1 5-0.1c3.7-0.3 6.9-1.5 10.4-2.2 1.7-0.3 3.6-0.5 5.3-0.8q-0.6-0.8-1.2-1.6c-3.7 0.4-7.4 1.4-11.1 1.9-6.4 0.9-13.5-0.1-18.3-2.4-2.3-1.1-4.1-2.5-6.5-3.6q-0.4-0.3-1-0.4c-0.6 0-1.3 0.2-1.9 0.6-3.9 2-9.5 3.7-14.8 2.8-0.4 0.3 0.4 0.6 1 0.8z"/><path class="c" d="m90.4 69.6q0 0-0.1 0 0.3-0.2 0.6-0.4z"/><path class="b" d="m59 73.7q3.3 0.2 6.6 0.4 2.5 0.1 5.1-0.1c3.7-0.3 6.8-1.5 10.4-2.2 3.2-0.6 7.1-0.9 9.2-2.2-5.3-1-10.8 1-16.3 1.7-4.4 0.6-8.9 0.4-13.3-0.7q-0.9 1.5-1.7 3.1z"/><path class="a" d="m85.5 167.6q0.8 0.5 1.6 0.9 0.3 0.1 0.6 0.3 0.2 0.1 0.5 0.2 0 0 0.1 0.1 0.2 0.1 0.4 0.2 0.2 0.1 0.4 0.2 0.3 0.1 0.5 0.2 0.9 0.4 1.9 0.8 3.3 1.4 6.7 2.5 0.2 0 0.3 0.1 1.5 0.4 3 0.7 2.6 0.7 5.3 1.1l0.6 0.1q0.1 0 0.1 0 0 0 0 0l0.7 0.1q0 0 0 0 0.4 0 0.7 0.1h0.7l0.6 0.1q0 0 0 0 0.3 0 0.5 0l0.5 0.1q2.5 0.2 5.1 0.2 2.8 0 5.6-0.3l1.2-0.1q0.1 0 0.3 0 0 0 0.1 0 0 0 0 0 0.1 0 0.1 0 0.2-0.1 0.4-0.1h0.5q0.2-0.1 0.4-0.1 0.1 0 0.1 0 0.2 0 0.4-0.1h0.1q0.2 0 0.3 0 5.1-0.8 9.9-2.3 0.3-0.1 0.5-0.2c-0.7-3.8-2.4-7.4-4.7-10.5-2.3-3.1-5.3-5.5-8.7-7.2 0.8-0.8 1.4-1.9 1.7-3.1q0.2-1.1 0-2.3-0.2-1.2-0.8-2.2c-0.8-1.2-2.1-2.1-3.5-2.4l-9-2c-1.5-0.3-3 0-4.2 0.9-1.3 0.8-2.1 2.2-2.4 3.7q-0.1 0.7-0.1 1.4c-8.7 6-15 12.3-19 18.9z"/><path class="h" d="m121.3 136.4c12.2 0 22-10.3 22-22.9 0-12.7-9.8-23-22-23-12.1 0-22 10.3-22 23 0 12.6 9.9 22.9 22 22.9z"/><path class="f" d="m118.2 135.1c-5.5 1.6-11.6-0.5-15.9-4.4-4.3-3.9-7-9.4-8.6-15.1-1.1-4.2-1.6-8.9 0.2-12.8 1.8-3.9 6.6-6.6 10.3-4.6-2.3-2.8-1.1-7.4 1.5-9.8 2.7-2.3 6.4-3 9.9-3.4 5.1-0.5 10.3-0.6 15.2 1.1 4.8 1.7 9.2 5.5 10.7 10.6 1.6 0.7 3.3 0.9 5 0.5 1.7-0.4 3.2-1.3 4.2-2.7 0.3 1.6 0.1 3.2-0.6 4.6-0.7 1.4-1.8 2.6-3.2 3.3l7.4-2.5c1.3 2.8-0.9 6.3-3.8 7.2-2.9 0.9-5.9-0.1-8.7-1.4-2.7-1.3-5.3-3-8.2-3.5-3-0.5-6.5 0.5-7.8 3.3-0.7 1.4-0.8 3.1-1.2 4.7-0.4 1.6-1.4 3.2-3 3.3-1 0.1-2-0.4-2.9-0.3-0.6 0.1-1.2 0.4-1.6 0.8-0.5 0.5-0.8 1.1-0.9 1.7-0.3 1.2-0.3 2.5 0 3.8l1.9 15z"/><path fill-rule="evenodd" class="a" d="m269.4 173.4c2.2 2.4 2.9 5.7 2.9 8.8 0 3.3-0.7 6.7-2.9 9.2-1.9 2.2-4.2 3.3-7.1 3.3-1.4 0-2.8-0.4-4-1-0.7-0.4-1.1-1.5-1.8-1.2-0.2 0 0 0.6 0 0.8 0.1 0.5-0.4 0.9-0.9 0.9h-5.3c-0.5 0-0.9-0.4-0.9-0.9v-30c0-0.5 0.4-0.9 0.9-0.9h5.7c0.5 0 1 0.4 0.9 0.9-0.2 2.2-1.9 7.8 0 8.7 1.7 0.9 3.3-1.8 5.4-1.8 2.8 0 5.2 1 7.1 3.2zm-4.8 9.1c0-1.4-0.2-3.6-1.2-4.8-0.7-0.9-1.6-1.3-2.7-1.3-1.1 0-2 0.4-2.7 1.3-1 1.1-1.2 2.9-1.2 4.3 0 1.4 0.2 3.3 1 4.5 0.7 1.2 1.7 1.9 3.1 1.9 1.1 0 1.9-0.5 2.6-1.3 0.9-1.2 1.1-3.1 1.1-4.6z"/><path fill-rule="evenodd" class="a" d="m287.5 177.5c0.4-1.3 1.3-3.8 1.7-5 0.2-0.4 0-0.9-0.4-1.1-1.3-0.8-2.7-1.2-4.2-1.2-1 0-2 0.2-2.9 0.8-0.4 0.2-0.6 1.1-1.1 0.9-0.1 0 0-0.2 0-0.3 0.1-0.5-0.4-0.9-0.9-0.9h-5.3c-0.5 0-0.9 0.4-0.9 0.9v21.7c0 0.5 0.4 0.9 0.9 0.9h5.7c0.5 0 0.9-0.4 0.9-0.9v-6.7c0-1.5 0-3 0.1-4.5 0.1-0.8 0.2-1.8 0.4-2.5 0.1-0.7 0.5-1.6 1-2 0.4-0.3 0.9-0.4 1.4-0.4 0.8 0 1.6 0.3 2.2 0.8q0.4 0.2 0.8 0.1 0.4-0.2 0.6-0.6z"/><path fill-rule="evenodd" class="a" d="m205.3 171.5c0-0.5-0.4-0.9-0.9-0.9h-17.9c-0.5 0-0.9 0.4-0.9 0.9v4.7q0 0.4 0.3 0.7 0.3 0.3 0.6 0.3l7.6-0.1q0.3 0 0.5 0-0.8 0.8-1.5 1.7l-8 9.3q-0.3 0.2-0.3 0.6v4.5c0 0.5 0.4 0.9 0.9 0.9h16.3l-1.5-4.7-3.2 0.7c-0.2 1.4-2.5 2-3.3 1.5-1.7 0-1.5-1.7-1.4-2.5 2.3-4 6.2-8.2 5.4-8.5h-0.9c-0.2-1.8 0.7-3 1.9-3.5-0.4-0.8-0.1-1.8-0.5-2.7 1.1 0.5 1.8 1.4 2.2 2.5q0.4 0 0.8 0.1c-0.1-1-0.9-1.9-0.7-2.9 2.2 1.1 2.6 2 2.7 3.8l1.8-2.4z"/><path fill-rule="evenodd" class="a" d="m224 173.6c2.5 2.8 3 6.9 2.9 10.4 0 0.5-0.4 0.9-0.9 0.9h-13.3c0.2 0.9 0.5 1.8 1.1 2.5q1.1 1.1 2.6 1.1c0.6 0 1.2-0.1 1.7-0.5 0.5-0.5 0.9-1.3 1-1.9 0.2-0.5 0.6-0.8 1.1-0.7l5.7 1q0.4 0.1 0.6 0.4 0.2 0.4 0.1 0.8c-0.8 2.1-2 3.9-3.8 5.2-1.1 0.8-2.4 1.3-3.7 1.6l2.3-3.1-2.7 0.2-3.6 3.1q-0.3 0-0.6-0.1l2.7-3-1.9-0.6-3.2 3.1q-0.3-0.1-0.5-0.2l2.7-3.6-1.6-1.1-3.8 3.2q-0.1-0.1-0.2-0.2l3.3-4-1.4-2.2-3.4 4.3c0-0.1-0.5-0.6-0.6-0.7l3.5-5.3-0.9-2.8-3.4 6.2q-0.4-1-0.6-2.1l3.5-6.4-1.1-0.9-2.6 5.1q0-0.4 0-0.8c0-3.3 0.8-6.6 3-9 2.1-2.3 4.7-3.4 7.8-3.4 3.2 0 6.1 1 8.2 3.5zm-4.6 6c-0.1-0.8-0.4-1.7-1-2.3-0.6-0.6-1.4-1-2.3-1-0.9 0-1.7 0.4-2.4 1.1-0.5 0.6-0.8 1.4-0.9 2.2z"/><path fill-rule="evenodd" class="a" d="m309 193.8c-0.1 0.2-0.4 0.4-0.8 0.4h-5.6c-0.4 0-0.7-0.2-0.8-0.6-0.2-0.3-0.1-0.9-0.4-1-0.9-0.3-1.5 1-2.3 1.3q-1.9 0.8-3.9 0.8c-2.2 0-4.2-0.5-5.8-2-1.5-1.5-2.2-3.2-2.2-5.3 0-1.3 0.3-2.6 1-3.8q1-1.6 2.8-2.5c1.4-0.7 3.2-1.1 4.7-1.4q1.7-0.3 3.4-0.7c0.4-0.2 1.1 0 1.4-0.5 0.3-0.4-0.1-1.2-0.5-1.6-0.5-0.4-1.8-0.5-2.4-0.5-0.6 0-1.4 0.1-1.9 0.5-0.5 0.3-0.8 1.1-1 1.7-0.2 0.4-0.6 0.6-1.1 0.6-1.2-0.3-3.8-0.7-5.1-1q-0.4 0-0.6-0.4-0.2-0.3-0.1-0.7c0.5-2.1 1.6-4 3.3-5.2 1.9-1.4 4.6-1.7 6.9-1.7 1.9 0 4.3 0.1 6.1 1 1.2 0.6 2.3 1.4 3 2.7 0.8 1.4 0.9 3.9 0.9 5.6q0 0 0 0c-0.1 1.6-0.1 5-0.1 6.6q0 1.3 0 2.5c0.1 0.5 0.1 1.1 0.2 1.6 0.2 0.9 0.6 1.8 1 2.7 0.1 0.3 0.1 0.6-0.1 0.9zm-8.5-9.7q-1.2 0.3-2.3 0.6c-0.7 0.1-2.2 0.4-2.8 0.8-0.5 0.3-0.7 0.7-0.7 1.3 0 0.6 0.2 1 0.6 1.4 0.4 0.5 1 0.6 1.6 0.6 0.9 0 1.7-0.3 2.4-0.8 0.5-0.4 0.9-0.8 1-1.4 0.1-0.3 0.2-0.6 0.2-0.9q0-0.8 0-1.6z"/><path fill-rule="evenodd" class="a" d="m248.9 184c0 0.5-0.4 0.9-0.9 0.9h-13.2c0.1 0.9 0.4 1.8 1 2.5q1.1 1.1 2.6 1.1c0.6 0 1.2-0.1 1.7-0.5 0.5-0.5 0.9-1.3 1.1-1.9 0.1-0.5 0.5-0.8 1-0.7l5.7 1q0.4 0.1 0.6 0.4 0.2 0.4 0.1 0.8c-0.8 2.1-2 4-3.8 5.2-1.1 0.8-2.3 1.3-3.5 1.5q-0.1 0.1-0.2 0.1-0.2 0.1-0.3 0.1-0.4 0.1-0.7 0.1 0 0 0 0-0.2 0-0.3 0-0.2 0-0.4 0.1-0.1 0-0.2 0c-0.3 0-0.5 0-0.7 0.1q-0.6 0.1-1.2 0c-0.5-0.1-1-0.1-1.4-0.2-0.4-0.1-0.9-0.2-1.2-0.3q-0.1 0-0.3 0-0.1 0-0.2-0.1 0 0 0 0 0 0-0.1 0 0 0 0 0-0.2-0.1-0.4-0.2-0.3-0.1-0.6-0.2c-0.1-0.1-0.3-0.2-0.4-0.2q-0.3-0.2-0.6-0.4c-0.2-0.1-0.4-0.2-0.6-0.4-0.2-0.1-0.3-0.2-0.5-0.3-0.4-0.3-0.6-0.5-0.9-0.8-0.3-0.2-0.5-0.5-0.7-0.8-0.2-0.2-0.4-0.5-0.5-0.7-0.1-0.1-0.2-0.2-0.3-0.4-0.1-0.2-0.1-0.3-0.2-0.5q-0.2-0.4-0.4-0.8-0.1-0.1-0.2-0.2 0-0.1 0-0.2c-0.1-0.1-0.2-0.7-0.3-0.9q0 0 0 0c0 0 0-0.1 0-0.1-0.1-0.3-0.1-0.5-0.2-0.8 0-0.2-0.1-0.5-0.2-0.8 0-0.3 0-0.1-0.1-0.5 0-0.3 0-0.3 0-0.3 0-0.5 0-0.6-0.1-0.8q0-0.3 0-0.7c0-0.4 0-0.8 0.1-1.2 0-0.3 0-0.3 0-0.5q0-0.3 0.1-0.5 0 0 0 0c0-0.2 0-0.2 0-0.4q0-0.1 0-0.2c0.3-2.5 1.1-5 2.9-6.9 2.1-2.3 4.7-3.4 7.8-3.4 3.2 0 6.1 1 8.2 3.5 2.5 2.8 3 6.9 2.9 10.4zm-21.8-3q0 0 0 0 0 0 0 0zm-0.2 2.2q0 0 0 0 0 0 0 0 0 0 0 0zm0 0q0-0.1 0-0.1 0 0 0 0.1zm0.2-2.2q0 0 0 0 0 0 0 0zm15.1 11q0.1 0 0.2 0h-0.1q0 0-0.1 0zm-1.2 1.7q0 0 0.1 0 0 0 0 0 0 0-0.1 0 0 0 0 0 0 0 0 0zm-4.9-1.7q0 0.1 0.1 0.1 0 0 0.1 0-0.1 0-0.2-0.1zm-1.8-11.8h6.6c-0.2-0.8-0.4-1.6-1-2.2-0.6-0.7-1.4-1.1-2.3-1.1-1 0-1.7 0.4-2.4 1.1-0.5 0.6-0.8 1.4-0.9 2.2z"/></g></svg>