<svg xmlns="http://www.w3.org/2000/svg" xmlns:xlink="http://www.w3.org/1999/xlink" width="14" height="14" viewBox="0 0 14 14">
  <defs>
    <clipPath id="clip-path">
      <rect id="Rectangle_5" data-name="Rectangle 5" width="14" height="14" transform="translate(121 106)" fill="#c66f6f"/>
    </clipPath>
  </defs>
  <g id="Mask_Group_5" data-name="Mask Group 5" transform="translate(-121 -106)" clip-path="url(#clip-path)">
    <g id="__TEMP__SVG__" transform="translate(120 105)">
      <path id="Path_5" data-name="Path 5" d="M1,11.75A1.75,1.75,0,0,0,2.75,13.5h10.5A1.75,1.75,0,0,0,15,11.75V6.937H1ZM3.062,9.375A.938.938,0,0,1,4,8.437H5.5a.937.937,0,0,1,.938.938V10a.938.938,0,0,1-.937.937H4A.938.938,0,0,1,3.062,10Z" fill="#027c8a"/>
      <path id="Path_6" data-name="Path 6" d="M13.25,2.5H2.75A1.75,1.75,0,0,0,1,4.25v.812H15V4.25A1.75,1.75,0,0,0,13.25,2.5Z" fill="#027c8a"/>
    </g>
  </g>
</svg>
