<svg xmlns="http://www.w3.org/2000/svg" xmlns:xlink="http://www.w3.org/1999/xlink" width="14" height="14" viewBox="0 0 14 14">
  <defs>
    <clipPath id="clip-path">
      <rect id="Rectangle_3" data-name="Rectangle 3" width="14" height="14" transform="translate(121 62)" fill="#c66f6f"/>
    </clipPath>
  </defs>
  <g id="Mask_Group_3" data-name="Mask Group 3" transform="translate(-121 -62)" clip-path="url(#clip-path)">
    <g id="__TEMP__SVG__" transform="translate(122.167 62)">
      <path id="Path_3" data-name="Path 3" d="M11.667,11.585a2.641,2.641,0,0,1-.57,1.7A1.707,1.707,0,0,1,9.725,14H1.941A1.707,1.707,0,0,1,.57,13.289a2.641,2.641,0,0,1-.57-1.7,13.094,13.094,0,0,1,.077-1.463A7.861,7.861,0,0,1,.365,8.736,4.613,4.613,0,0,1,.9,7.542a2.552,2.552,0,0,1,.857-.811A2.368,2.368,0,0,1,2.98,6.417,3.939,3.939,0,0,0,5.833,7.583,3.939,3.939,0,0,0,8.686,6.417a2.368,2.368,0,0,1,1.226.314,2.552,2.552,0,0,1,.857.811A4.613,4.613,0,0,1,11.3,8.736a7.861,7.861,0,0,1,.287,1.385A13.094,13.094,0,0,1,11.667,11.585ZM9.333,3.5A3.372,3.372,0,0,1,8.308,5.975,3.372,3.372,0,0,1,5.833,7,3.372,3.372,0,0,1,3.359,5.975,3.372,3.372,0,0,1,2.333,3.5,3.372,3.372,0,0,1,3.359,1.025,3.372,3.372,0,0,1,5.833,0,3.372,3.372,0,0,1,8.308,1.025,3.372,3.372,0,0,1,9.333,3.5Z" fill="#027c8a"/>
    </g>
  </g>
</svg>
