<svg xmlns="http://www.w3.org/2000/svg" xmlns:xlink="http://www.w3.org/1999/xlink" width="14" height="14" viewBox="0 0 14 14">
  <defs>
    <clipPath id="clip-path">
      <rect id="Rectangle_2" data-name="Rectangle 2" width="14" height="14" transform="translate(121 40)" fill="#c66f6f"/>
    </clipPath>
  </defs>
  <g id="Mask_Group_2" data-name="Mask Group 2" transform="translate(-121 -40)" clip-path="url(#clip-path)">
    <g id="__TEMP__SVG__" transform="translate(121 40.467)">
      <path id="Path_2" data-name="Path 2" d="M4.324,6.533a2.514,2.514,0,0,0-1.932.933H1.415a1.672,1.672,0,0,1-1.006-.3A1,1,0,0,1,0,6.307Q0,3.733.9,3.733a1.391,1.391,0,0,1,.317.153,4.8,4.8,0,0,0,.711.31,2.559,2.559,0,0,0,.868.157,2.929,2.929,0,0,0,.97-.168,3.635,3.635,0,0,0-.036.481A3.211,3.211,0,0,0,4.324,6.533Zm7.809,4.645A1.817,1.817,0,0,1,11.6,12.56a1.966,1.966,0,0,1-1.415.507H3.814A1.966,1.966,0,0,1,2.4,12.56a1.817,1.817,0,0,1-.532-1.382q0-.386.026-.755a7.426,7.426,0,0,1,.1-.795,6.18,6.18,0,0,1,.193-.791A3.748,3.748,0,0,1,2.5,8.127a2.564,2.564,0,0,1,.452-.591,1.9,1.9,0,0,1,.623-.39A2.19,2.19,0,0,1,4.39,7a.859.859,0,0,1,.314.157l.532.35a3.2,3.2,0,0,0,.78.35,3.169,3.169,0,0,0,1.969,0,3.2,3.2,0,0,0,.78-.35l.532-.35A.859.859,0,0,1,9.61,7a2.19,2.19,0,0,1,.813.146,1.9,1.9,0,0,1,.623.39,2.564,2.564,0,0,1,.452.591,3.748,3.748,0,0,1,.314.711,6.181,6.181,0,0,1,.193.791,7.426,7.426,0,0,1,.1.795Q12.133,10.792,12.133,11.178ZM4.667,1.867a1.8,1.8,0,0,1-.547,1.32,1.8,1.8,0,0,1-1.32.547,1.8,1.8,0,0,1-1.32-.547,1.8,1.8,0,0,1-.547-1.32A1.8,1.8,0,0,1,1.48.547,1.8,1.8,0,0,1,2.8,0,1.8,1.8,0,0,1,4.12.547,1.8,1.8,0,0,1,4.667,1.867ZM9.8,4.667a2.7,2.7,0,0,1-.82,1.98A2.7,2.7,0,0,1,7,7.467a2.7,2.7,0,0,1-1.98-.82,2.7,2.7,0,0,1-.82-1.98,2.7,2.7,0,0,1,.82-1.98A2.7,2.7,0,0,1,7,1.867a2.7,2.7,0,0,1,1.98.82A2.7,2.7,0,0,1,9.8,4.667ZM14,6.307a1,1,0,0,1-.408.864,1.672,1.672,0,0,1-1.006.3h-.977a2.514,2.514,0,0,0-1.932-.933,3.211,3.211,0,0,0,.591-1.867,3.635,3.635,0,0,0-.036-.481,2.929,2.929,0,0,0,.97.168,2.559,2.559,0,0,0,.868-.157,4.8,4.8,0,0,0,.711-.31,1.391,1.391,0,0,1,.317-.153Q14,3.733,14,6.307Zm-.933-4.441a1.8,1.8,0,0,1-.547,1.32,1.866,1.866,0,0,1-2.64,0,1.8,1.8,0,0,1-.547-1.32A1.8,1.8,0,0,1,9.88.547a1.866,1.866,0,0,1,2.64,0A1.8,1.8,0,0,1,13.067,1.867Z" fill="#027c8a"/>
    </g>
  </g>
</svg>
