<svg width="41" height="22" viewBox="0 0 41 22" fill="none" xmlns="http://www.w3.org/2000/svg">
<path d="M26.2109 13.6228C25.492 12.9039 24.517 12.5 23.5003 12.5H15.8336C14.817 12.5 13.8419 12.9039 13.123 13.6228" stroke="#027C8A" stroke-width="1.5" stroke-linecap="round" stroke-linejoin="round"/>
<path d="M19.6673 8.66667C21.7844 8.66667 23.5007 6.95043 23.5007 4.83333C23.5007 2.71624 21.7844 1 19.6673 1C17.5502 1 15.834 2.71624 15.834 4.83333C15.834 6.95043 17.5502 8.66667 19.6673 8.66667Z" stroke="#027C8A" stroke-width="1.5" stroke-linecap="round" stroke-linejoin="round"/>
<path d="M16.3333 21.25V19.3333C16.3333 18.3167 15.9295 17.3416 15.2106 16.6228C14.4917 15.9039 13.5167 15.5 12.5 15.5H4.83333C3.81667 15.5 2.84165 15.9039 2.12276 16.6228C1.40387 17.3416 1 18.3167 1 19.3333V21.25" stroke="#027C8A" stroke-width="1.5" stroke-linecap="round" stroke-linejoin="round"/>
<path d="M8.66732 11.6667C10.7844 11.6667 12.5007 9.95043 12.5007 7.83333C12.5007 5.71624 10.7844 4 8.66732 4C6.55023 4 4.83398 5.71624 4.83398 7.83333C4.83398 9.95043 6.55023 11.6667 8.66732 11.6667Z" stroke="#027C8A" stroke-width="1.5" stroke-linecap="round" stroke-linejoin="round"/>
<path d="M39.3333 21.25V19.3333C39.3333 18.3167 38.9295 17.3416 38.2106 16.6228C37.4917 15.9039 36.5167 15.5 35.5 15.5H27.8333C26.8167 15.5 25.8416 15.9039 25.1228 16.6228C24.4039 17.3416 24 18.3167 24 19.3333V21.25" stroke="#027C8A" stroke-width="1.5" stroke-linecap="round" stroke-linejoin="round"/>
<path d="M31.6673 11.6667C33.7844 11.6667 35.5007 9.95043 35.5007 7.83333C35.5007 5.71624 33.7844 4 31.6673 4C29.5502 4 27.834 5.71624 27.834 7.83333C27.834 9.95043 29.5502 11.6667 31.6673 11.6667Z" stroke="#027C8A" stroke-width="1.5" stroke-linecap="round" stroke-linejoin="round"/>
</svg>
