<svg width="34" height="24" viewBox="0 0 34 24" fill="none" xmlns="http://www.w3.org/2000/svg">
<rect x="0.5" y="0.5" width="33" height="23" rx="3.5" fill="white" stroke="#D9D9D9"/>
<path fill-rule="evenodd" clip-rule="evenodd" d="M10.6318 15.8583L8.59471 15.8583L7.06717 9.79247C6.99467 9.51344 6.84073 9.26676 6.61428 9.1505C6.04915 8.85833 5.42642 8.6258 4.74707 8.50853L4.74707 8.27499L8.02859 8.27499C8.48149 8.27499 8.82116 8.6258 8.87777 9.03323L9.67034 13.4087L11.7064 8.27499L13.6868 8.27499L10.6318 15.8583ZM14.8191 15.8583L12.8953 15.8583L14.4794 8.27499L16.4032 8.27499L14.8191 15.8583ZM18.8922 10.3758C18.9488 9.96738 19.2885 9.73384 19.6847 9.73384C20.3075 9.6752 20.9858 9.79248 21.5519 10.0836L21.8916 8.45091C21.3255 8.21737 20.7028 8.1001 20.1376 8.1001C18.2704 8.1001 16.9117 9.1505 16.9117 10.6083C16.9117 11.7174 17.8741 12.2997 18.5535 12.6505C19.2885 13.0003 19.5715 13.2338 19.5149 13.5836C19.5149 14.1083 18.9488 14.3419 18.3836 14.3419C17.7043 14.3419 17.025 14.167 16.4032 13.8748L16.0635 15.5086C16.7429 15.7997 17.4779 15.917 18.1572 15.917C20.2509 15.9746 21.5519 14.9252 21.5519 13.3501C21.5519 11.3666 18.8922 11.2503 18.8922 10.3758ZM28.2848 15.8583L26.7573 8.27499L25.1165 8.27499C24.7768 8.27499 24.4372 8.50853 24.3239 8.85833L21.4953 15.8583L23.4758 15.8583L23.871 14.7503L26.3044 14.7503L26.5308 15.8583L28.2848 15.8583ZM25.3996 10.3172L25.9647 13.1752L24.3806 13.1752L25.3996 10.3172Z" fill="#172B85"/>
</svg>
