<svg width="25" height="8" viewBox="0 0 25 8" fill="none" xmlns="http://www.w3.org/2000/svg">
<path fill-rule="evenodd" clip-rule="evenodd" d="M6.63175 7.85786H4.59471L3.06717 1.79198C2.99467 1.51295 2.84073 1.26627 2.61428 1.15001C2.04915 0.857839 1.42642 0.625314 0.74707 0.508041V0.274505H4.02859C4.48149 0.274505 4.82116 0.625314 4.87777 1.03274L5.67034 5.40826L7.70639 0.274505H9.68682L6.63175 7.85786ZM10.8191 7.85786H8.89525L10.4794 0.274505H12.4032L10.8191 7.85786ZM14.8922 2.37532C14.9488 1.96689 15.2885 1.73335 15.6847 1.73335C16.3075 1.67471 16.9858 1.79199 17.5519 2.08315L17.8916 0.450419C17.3255 0.216883 16.7028 0.0996094 16.1376 0.0996094C14.2704 0.0996094 12.9117 1.15002 12.9117 2.60785C12.9117 3.71689 13.8741 4.29922 14.5535 4.65003C15.2885 4.99982 15.5715 5.23336 15.5149 5.58316C15.5149 6.10786 14.9488 6.34139 14.3836 6.34139C13.7043 6.34139 13.025 6.16649 12.4032 5.87432L12.0635 7.50806C12.7429 7.79922 13.4779 7.9165 14.1572 7.9165C16.2509 7.97412 17.5519 6.92473 17.5519 5.34962C17.5519 3.36608 14.8922 3.24982 14.8922 2.37532ZM24.2848 7.85786L22.7573 0.274505H21.1165C20.7768 0.274505 20.4372 0.508041 20.3239 0.857839L17.4953 7.85786H19.4758L19.871 6.74982H22.3044L22.5308 7.85786H24.2848ZM21.3996 2.31669L21.9647 5.17473H20.3806L21.3996 2.31669Z" fill="#172B85"/>
</svg>
